<?xml version="1.0" encoding="utf-8"?>
<!-- Generator: Adobe Illustrator 18.0.0, SVG Export Plug-In . SVG Version: 6.00 Build 0)  -->
<!DOCTYPE svg PUBLIC "-//W3C//DTD SVG 1.1//EN" "http://www.w3.org/Graphics/SVG/1.1/DTD/svg11.dtd">
<svg version="1.1" id="图层_1" xmlns="http://www.w3.org/2000/svg" xmlns:xlink="http://www.w3.org/1999/xlink" x="0px" y="0px"
	 viewBox="0 0 595.3 406" enable-background="new 0 0 595.3 406" xml:space="preserve">
<rect x="21.1" y="19.5" fill="#EFEFEF" stroke="#000000" stroke-miterlimit="10" width="553" height="33.7"/>
<rect x="21.1" y="63.8" fill="#EFEFEF" stroke="#000000" stroke-miterlimit="10" width="553" height="284.9"/>
<rect x="21.1" y="358.5" fill="#EFEFEF" stroke="#000000" stroke-miterlimit="10" width="553" height="27.9"/>
<g>
	<path d="M274.8,41.2c1.1-0.1,2-0.2,2.6-0.3c0.6-0.1,0.9-0.1,1-0.1c0.4,0,0.7,0.1,1,0.3c0.3,0.2,0.4,0.3,0.4,0.5
		c0,0.2-0.2,0.2-0.6,0.2c-0.1,0-0.3,0-0.5,0c-0.5-0.1-1.1-0.1-1.8-0.1c-1.3,0-2.5,0.1-3.7,0.2c-1.2,0.2-1.9,0.3-2.2,0.4
		c-0.1,0.1-0.3,0.1-0.4,0.1s-0.3-0.1-0.6-0.2c-0.2-0.1-0.3-0.2-0.3-0.3c0-0.1,0.1-0.1,0.4-0.1c0.4,0,1.8-0.1,4.1-0.4l0.1-3.9
		c0-0.9,0-1.6,0-2.1s-0.1-0.9-0.3-1c-0.1-0.2-0.2-0.3-0.2-0.4s0.1-0.2,0.2-0.2s0.4,0.1,0.7,0.2c0.4,0.2,0.5,0.3,0.5,0.5
		c0,0.1,0,0.2-0.1,0.4c-0.1,0.2-0.1,1-0.2,2.4c0.6-0.1,1.2-0.3,1.8-0.5c0.1-0.1,0.3-0.1,0.4-0.1s0.3,0,0.6,0.1
		c0.2,0.1,0.3,0.2,0.3,0.2c0,0.1-0.1,0.1-0.2,0.2c-0.1,0.1-0.5,0.1-1,0.2c-0.6,0.1-1,0.2-1.3,0.2c-0.3,0-0.5,0-0.6,0L274.8,41.2z"/>
	<path d="M284.9,34.6c0.6-0.1,1.2-0.2,1.9-0.3c0.6-0.2,1.1-0.3,1.2-0.4c0.2-0.1,0.3-0.2,0.4-0.2s0.3,0.1,0.7,0.3
		c0.3,0.2,0.5,0.4,0.5,0.5s-0.1,0.2-0.4,0.3c-0.1,0-0.2,0.1-0.4,0.3c-0.2,0.2-0.3,0.4-0.3,0.5c0,0.1,0,0.1,0.1,0.2s0.1,0.1,0.1,0.2
		s-0.1,0.1-0.2,0.1c-0.1,0-0.4,0.1-0.8,0.1l-1.2,0.2c-0.7,0.1-1.1,0.2-1.2,0.2s-0.2,0-0.3,0c-0.1,0.5-0.3,1.1-0.5,1.8
		c-0.2,0.6-0.4,1.2-0.7,1.6c-0.2,0.4-0.5,0.8-0.8,1.2c-0.3,0.4-0.6,0.7-0.9,0.9c-0.3,0.2-0.5,0.4-0.6,0.5s-0.2,0.1-0.3,0.1
		s-0.1,0-0.1,0c0-0.1,0.1-0.2,0.4-0.5c1.1-1.1,1.9-2.3,2.3-3.6c0.4-1.3,0.6-2.4,0.6-3.2c0-0.2,0-0.4-0.1-0.6
		c-0.1-0.1-0.1-0.2-0.1-0.3c0-0.1,0.1-0.1,0.2-0.1S284.6,34.5,284.9,34.6z M286.1,39.7c-0.2,0-0.6,0.1-1,0.2
		c-0.2,0.1-0.4,0.1-0.5,0.1c-0.1,0-0.2-0.1-0.3-0.2c-0.1-0.1-0.2-0.2-0.2-0.2s0.1-0.1,0.2-0.1c0.5,0,1.4-0.1,2.6-0.3
		c1.2-0.2,2-0.4,2.3-0.4c0.3-0.1,0.6-0.1,0.9-0.1s0.5,0.1,0.7,0.2c0.2,0.1,0.3,0.2,0.3,0.3s0,0.2-0.1,0.2c-0.1,0-0.2,0.1-0.4,0
		c-0.2,0-0.4,0-0.8,0c-1,0-2.1,0.1-3.4,0.2c0.3,0.2,0.5,0.4,0.5,0.5c0,0.1-0.1,0.2-0.2,0.3c-0.5,0.5-1,0.9-1.5,1.4l3.3-0.4
		c-0.3-0.4-0.5-0.6-0.6-0.8c-0.1-0.1-0.2-0.2-0.2-0.3s0-0.1,0.1-0.1c0.1,0,0.4,0.1,0.9,0.4c0.5,0.3,0.8,0.5,1,0.8
		c0.2,0.2,0.3,0.5,0.3,0.7c0,0.2,0,0.4-0.1,0.5c-0.1,0.1-0.1,0.1-0.2,0.1s-0.2-0.1-0.3-0.2c-0.1-0.1-0.3-0.4-0.7-0.9
		c-1.1,0.2-1.9,0.4-2.6,0.6c-0.7,0.2-1.2,0.3-1.6,0.5c-0.1,0-0.2,0.1-0.2,0.1c-0.1,0-0.2-0.1-0.2-0.3c0-0.1,0-0.2,0-0.3
		c0-0.2,0-0.3,0.1-0.3c0-0.1,0.1-0.1,0.2-0.1c0.3-0.1,0.6-0.3,0.8-0.5s0.4-0.5,0.6-0.8c0.2-0.3,0.3-0.5,0.3-0.7
		C286.1,39.8,286.1,39.7,286.1,39.7z M284.9,36.3c0.4,0,0.9-0.1,1.4-0.2c0.5-0.1,0.9-0.2,1.1-0.2s0.3-0.1,0.4-0.2
		c0.1-0.1,0.1-0.2,0.2-0.5c0.1-0.3,0.1-0.4,0.1-0.5s0-0.1-0.1-0.1s-0.4,0.1-1,0.2c-0.6,0.1-1.2,0.2-1.7,0.3
		C285.1,35.4,285,35.8,284.9,36.3z M288.5,37.3c0.2,0,0.3,0,0.4,0.1c0.1,0.1,0.1,0.1,0.1,0.2c0,0.1,0,0.1-0.1,0.2
		c-0.1,0.1-0.5,0.2-1.1,0.3c-0.7,0.1-1.2,0.2-1.5,0.2c-0.3,0-0.6,0-0.7-0.1c-0.2-0.1-0.3-0.1-0.3-0.2c0-0.1,0.1-0.1,0.3-0.1
		s0.5-0.1,0.8-0.1c0.4-0.1,0.6-0.1,0.8-0.2C287.7,37.4,288.2,37.3,288.5,37.3z"/>
	<path d="M295.3,36.8c0.2-0.1,0.3-0.1,0.4-0.1c0.1,0,0.2,0,0.4,0c0.2,0,0.4,0,0.5,0.1c0.1,0.1,0.2,0.1,0.2,0.2
		c0,0.1-0.1,0.1-0.4,0.2c-0.3,0.1-0.7,0.2-1.1,0.3l0,1.7c0,0.7,0,1.5-0.1,2.2s-0.1,1.1-0.1,1.3c0,0.1-0.1,0.2-0.1,0.3
		c-0.1,0.1-0.1,0.1-0.2,0.1c-0.1,0-0.2-0.1-0.3-0.3c-0.1-0.2-0.1-0.4-0.1-0.6c0-0.2,0-0.5,0.1-0.8c0.2-1,0.3-2.3,0.4-3.7
		c-0.6,0.1-1,0.2-1.3,0.2c-0.2,0-0.4,0-0.6-0.1c-0.2-0.1-0.3-0.1-0.3-0.2c0-0.1,0.1-0.1,0.2-0.1c0.4,0,1.1-0.1,2-0.3
		c0-0.4,0-0.9,0-1.4c0-0.5,0-0.8-0.1-1c0-0.2-0.1-0.3-0.2-0.4c-0.1-0.1-0.1-0.2-0.1-0.2c0-0.1,0.1-0.1,0.2-0.1s0.3,0.1,0.6,0.2
		c0.3,0.2,0.4,0.3,0.4,0.4c0,0,0,0.1-0.1,0.2C295.4,34.9,295.4,35.6,295.3,36.8z M299.2,36.4c0.5-0.1,0.8-0.2,0.9-0.2
		s0.2-0.1,0.4-0.1c0.1,0,0.3,0.1,0.6,0.2s0.4,0.3,0.4,0.4c0,0.1-0.1,0.2-0.2,0.3c-0.1,0.1-0.2,0.6-0.4,1.3c-0.2,1.3-0.4,2.3-0.5,2.8
		c-0.2,0.6-0.4,1-0.6,1.3c-0.3,0.3-0.5,0.4-0.6,0.4c-0.1,0-0.2-0.1-0.2-0.2c-0.1-0.2-0.2-0.3-0.3-0.6c-0.1-0.2-0.3-0.4-0.4-0.5
		c-0.1-0.1-0.1-0.1-0.1-0.2c0,0,0-0.1,0.1-0.1s0.1,0,0.1,0c0.4,0.2,0.7,0.3,0.9,0.3c0.1,0,0.2-0.1,0.3-0.2c0.1-0.1,0.2-0.4,0.3-0.8
		s0.3-1,0.4-1.6s0.2-1.2,0.2-1.8c0-0.2,0-0.3,0-0.4c0-0.1-0.1-0.1-0.2-0.1c-0.2,0-0.5,0-1,0.1c-0.2,1.3-0.6,2.4-1,3.1
		c-0.5,0.8-1,1.4-1.5,1.8c-0.5,0.4-0.9,0.6-1,0.6c0,0-0.1,0-0.1-0.1s0.1-0.1,0.2-0.2c0.8-0.6,1.4-1.3,1.8-2.1s0.8-1.8,1-2.9
		c-0.5,0.1-0.8,0.2-0.9,0.2s-0.3,0-0.4-0.1c-0.2-0.1-0.2-0.2-0.2-0.2c0-0.1,0.1-0.1,0.3-0.1s0.7-0.1,1.4-0.2c0.1-0.6,0.1-1,0.1-1.5
		s-0.1-0.7-0.2-0.9c-0.1-0.1-0.1-0.2-0.1-0.3c0-0.1,0.1-0.1,0.2-0.1s0.4,0.1,0.7,0.2s0.4,0.3,0.4,0.5c0,0.1,0,0.1-0.1,0.2
		C299.6,34.8,299.4,35.4,299.2,36.4z M296.9,38.1c0.1,0,0.1,0.1,0.2,0.2s0.1,0.2,0.1,0.4c0,0.4-0.1,0.7-0.3,1
		c-0.2,0.3-0.4,0.5-0.5,0.5c-0.1,0-0.2-0.1-0.2-0.3c0-0.1,0-0.2,0.1-0.4c0-0.1,0.1-0.2,0.1-0.3c0.2-0.3,0.4-0.6,0.4-0.9
		C296.7,38.1,296.8,38.1,296.9,38.1z M301.3,38.4c0.1,0,0.3,0,0.6,0.1c0.3,0.1,0.5,0.2,0.7,0.4s0.3,0.5,0.3,0.8
		c0,0.2-0.1,0.4-0.2,0.4c-0.2,0-0.3-0.1-0.6-0.3s-0.4-0.5-0.7-0.7c-0.2-0.3-0.3-0.4-0.3-0.5C301.2,38.5,301.2,38.4,301.3,38.4z"/>
	<path d="M307,40.7c0.8-0.6,1.2-1,1.3-1c0.1-0.1,0.2-0.1,0.2-0.1c0.1,0,0.1,0,0.1,0.1c0,0.1-0.1,0.2-0.2,0.3c-0.1,0.1-0.4,0.5-0.8,1
		c-0.4,0.5-0.7,0.9-0.8,1.1c-0.1,0.2-0.2,0.3-0.3,0.3s-0.2-0.1-0.3-0.3c-0.1-0.2-0.2-0.3-0.2-0.4s0-0.2,0.1-0.3
		c0.1-0.1,0.2-0.2,0.3-0.4s0.2-0.6,0.2-1.2c0.1-0.6,0.1-1,0.1-1.3s0-0.5,0-0.5c0-0.1,0-0.1-0.1-0.1c0,0-0.2,0-0.4,0.1
		c-0.2,0.1-0.4,0.2-0.7,0.3c-0.1,0.1-0.3,0.1-0.4,0.1s-0.3-0.1-0.4-0.2s-0.3-0.2-0.3-0.3s0.1-0.1,0.3-0.1c0.4-0.1,0.8-0.2,1.1-0.3
		c0.3-0.1,0.6-0.2,0.6-0.4c0.2-0.2,0.3-0.3,0.4-0.3c0.1,0,0.3,0.1,0.5,0.2c0.2,0.1,0.3,0.2,0.3,0.3s-0.1,0.2-0.2,0.3
		c-0.2,0.1-0.3,0.4-0.3,0.7C307.1,38.7,307.1,39.5,307,40.7z M306.4,34.1c0.3,0,0.6,0.1,1,0.2c0.4,0.1,0.6,0.4,0.6,0.7
		c0,0.1,0,0.2-0.1,0.3c-0.1,0.1-0.1,0.1-0.2,0.1s-0.2,0-0.3-0.1s-0.3-0.2-0.5-0.4c-0.2-0.2-0.4-0.3-0.5-0.4s-0.1-0.2-0.1-0.2
		S306.2,34.1,306.4,34.1z M311.4,39.6c0.5,0.6,1,1.1,1.5,1.5c0.5,0.4,1.2,0.7,1.9,0.9c0.2,0.1,0.3,0.1,0.3,0.2s-0.1,0.1-0.2,0.1
		c-0.1,0-0.4,0-0.7,0.1c-0.4,0-0.7,0-0.9,0c-0.3,0-0.4,0-0.6-0.1c-0.1-0.1-0.3-0.2-0.5-0.5c-0.2-0.3-0.6-0.8-1.2-1.6
		c-0.3,0.4-0.7,0.8-1.1,1.1s-0.8,0.5-1.2,0.6c-0.4,0.1-0.6,0.2-0.8,0.2c-0.1,0-0.2,0-0.2-0.1s0.1-0.1,0.2-0.2
		c1.3-0.6,2.2-1.3,2.7-2.1c-0.3-0.4-0.5-0.8-0.8-1.2c-0.3-0.4-0.5-0.7-0.6-0.9c-0.1-0.2-0.3-0.3-0.5-0.4c-0.2-0.1-0.3-0.2-0.3-0.3
		s0.1-0.1,0.2-0.1c0.1,0,0.3,0,0.5,0.1c0.2,0.1,0.5,0.3,0.7,0.7l1.1,1.6c0.3-0.6,0.5-1.3,0.7-2.1s0.3-1.4,0.3-1.7c0-0.1,0-0.2,0-0.2
		s0-0.2,0-0.3s0-0.2,0.1-0.2s0.3,0.1,0.5,0.3c0.3,0.2,0.4,0.3,0.4,0.5c0,0.1-0.1,0.3-0.2,0.5c-0.1,0.2-0.2,0.5-0.3,0.8
		C312.3,37.8,311.9,38.7,311.4,39.6z M310.9,35.8c0,0.3-0.1,0.5-0.3,0.5c-0.2,0-0.4-0.2-0.6-0.6c-0.2-0.4-0.4-0.7-0.4-0.8
		c0-0.1,0-0.1,0.1-0.1c0.2,0,0.4,0.1,0.7,0.2S310.9,35.4,310.9,35.8z"/>
	<path d="M319,36.7c0.4-0.1,0.6-0.2,0.7-0.2s0.3,0,0.4,0.1c0.1,0.1,0.2,0.1,0.2,0.2c0,0.1-0.1,0.1-0.2,0.2c-0.1,0.1-0.5,0.2-1.1,0.3
		c0,0.3,0,0.6,0,0.9l0,2.9c0,0.6,0,1-0.1,1.3c-0.1,0.3-0.1,0.5-0.2,0.5s-0.2-0.1-0.3-0.3c-0.1-0.2-0.1-0.4-0.1-0.5
		c0-0.2,0-0.3,0.1-0.5c0.2-0.8,0.3-1.9,0.3-3.3c-0.5,0.9-1,1.6-1.6,2.2c-0.6,0.5-0.9,0.8-1.1,0.8c0,0-0.1,0-0.1-0.1s0-0.1,0.1-0.2
		c0.4-0.4,0.9-0.9,1.4-1.6s0.9-1.3,1.1-2c-0.9,0.2-1.4,0.3-1.6,0.3s-0.4,0-0.5-0.1s-0.2-0.1-0.2-0.1s0.1-0.1,0.3-0.1
		c0.3,0,1-0.2,2.1-0.5c0-0.9-0.1-1.6-0.1-1.9c0-0.3-0.1-0.6-0.2-0.7s-0.1-0.3-0.1-0.3s0-0.1,0.1-0.1s0.3,0.1,0.6,0.2
		s0.4,0.3,0.4,0.4c0,0.1,0,0.1,0,0.2c-0.1,0.2-0.1,0.4-0.2,0.7C319.1,35.6,319.1,36.1,319,36.7z M319.2,38.7c0.1,0,0.2,0,0.4,0.1
		c0.2,0.1,0.3,0.1,0.4,0.2c0.1,0.1,0.1,0.2,0.1,0.3c0,0.1-0.1,0.2-0.2,0.2c-0.1,0-0.3-0.1-0.5-0.3s-0.3-0.4-0.3-0.4
		C319.1,38.7,319.2,38.7,319.2,38.7z M323.3,40.1c0.4,0.8,0.8,1.3,1.2,1.6c0.4,0.3,0.7,0.5,0.8,0.5c0.1,0,0.1-0.1,0.2-0.2
		c0.1-0.1,0.2-0.4,0.3-0.7c0.1-0.2,0.1-0.3,0.2-0.3c0.1,0,0.1,0.1,0.1,0.2l0,0.5c0,0.5,0,0.9,0.1,1.2c0,0.1,0,0.1,0,0.2
		c0,0.1-0.1,0.2-0.2,0.2c-0.1,0-0.4-0.1-0.8-0.3s-0.8-0.5-1.2-1c-0.4-0.4-0.7-1-1-1.7c-0.6,0.4-1.2,0.7-1.8,0.8
		c-0.5,0.2-0.9,0.2-1,0.2s-0.2,0-0.2-0.1c0-0.1,0.1-0.1,0.2-0.1c0.9-0.3,1.7-0.8,2.6-1.4c-0.2-0.6-0.4-1.1-0.5-1.6
		c-0.3,0.1-0.5,0.2-0.6,0.2c-0.5,0.2-0.9,0.3-1,0.3c-0.1,0-0.3,0-0.3-0.1s-0.1-0.1-0.1-0.1c0,0,0.1-0.1,0.2-0.1
		c0.6-0.2,1.2-0.4,1.8-0.6c-0.1-0.3-0.2-0.7-0.2-1c-0.5,0.2-0.8,0.3-0.9,0.3s-0.3,0-0.4-0.1c-0.1,0-0.2-0.1-0.2-0.1s0.1-0.1,0.3-0.2
		c0.2-0.1,0.6-0.2,1.1-0.4c-0.2-0.9-0.3-1.5-0.5-1.8s-0.2-0.6-0.4-0.6c-0.1-0.1-0.2-0.2-0.2-0.3s0.1-0.1,0.2-0.1s0.3,0,0.6,0.1
		c0.2,0.1,0.4,0.1,0.5,0.2c0.1,0.1,0.1,0.1,0.1,0.2s0,0.1,0,0.2c0,0.1,0,0.1,0,0.2c0,0.4,0.1,1,0.2,1.8l1-0.4
		c0.2-0.1,0.3-0.1,0.4-0.1c0.1,0,0.2,0,0.3,0.1S324,36,324,36s0,0.1-0.1,0.2s-0.6,0.3-1.6,0.6c0,0.2,0.1,0.5,0.2,1
		c0.6-0.3,0.9-0.4,1-0.5s0.2-0.1,0.3-0.1c0.1,0,0.3-0.1,0.4-0.1s0.2,0,0.3,0.1s0.2,0.1,0.2,0.1c0,0.1-0.2,0.2-0.6,0.3l-1.5,0.5
		c0.2,0.8,0.4,1.3,0.5,1.4c0.3-0.2,0.5-0.4,0.7-0.6c0.2-0.2,0.3-0.4,0.3-0.5c0-0.1,0.1-0.2,0.2-0.2s0.2,0.1,0.4,0.2
		c0.2,0.1,0.3,0.2,0.3,0.3s0,0.2-0.1,0.2c-0.1,0.1-0.1,0.1-0.2,0.2l-0.3,0.2c-0.1,0.1-0.2,0.2-0.4,0.3L323.3,40.1z M323.7,34.4
		c0.3,0,0.5,0.1,0.7,0.2c0.2,0.1,0.3,0.3,0.3,0.5c0,0.2-0.1,0.2-0.2,0.2c-0.1,0-0.4-0.1-0.8-0.4c-0.4-0.3-0.6-0.4-0.6-0.5
		s0.1-0.1,0.2-0.1C323.5,34.4,323.7,34.4,323.7,34.4z"/>
</g>
<g>
	<path d="M289.2,369.3c0.5,0,1.2-0.1,2.3-0.2c1.1-0.1,1.8-0.2,2.1-0.3s0.6-0.1,0.7-0.2c0.1-0.1,0.3-0.1,0.4-0.1s0.3,0.1,0.6,0.3
		c0.3,0.2,0.5,0.4,0.5,0.5c0,0.1,0,0.2-0.1,0.3c-0.1,0.1-0.1,0.3-0.2,0.5c0,0.2,0,0.5,0,0.9s0,1.1,0.1,2.1l0.1,2.7
		c0,0.4-0.1,0.8-0.3,1.2s-0.4,0.6-0.6,0.6c-0.1,0-0.2-0.1-0.3-0.2s-0.2-0.3-0.4-0.5c-0.2-0.2-0.3-0.4-0.4-0.5
		c-0.1-0.1-0.2-0.2-0.2-0.2c0,0,0-0.1,0.1-0.1c0.1,0,0.2,0,0.4,0.1c0.2,0.1,0.3,0.1,0.5,0.1c0.1,0,0.2,0,0.2-0.1
		c0-0.1,0.1-0.3,0.1-0.7s0.1-1,0.1-1.7s0-1.6-0.1-2.4c0-0.8-0.1-1.3-0.1-1.5c0-0.2-0.1-0.3-0.2-0.4c-0.1-0.1-0.3-0.1-0.5-0.1
		s-0.8,0-1.7,0.1c-0.9,0.1-1.9,0.2-3.1,0.4c0,1.6-0.1,3-0.2,4.3c-0.1,1.3-0.2,2.1-0.3,2.4c-0.1,0.3-0.2,0.4-0.3,0.4
		s-0.2-0.1-0.3-0.4s-0.1-0.4-0.1-0.5c0-0.1,0-0.2,0.1-0.4c0.2-0.4,0.3-1,0.4-1.8s0.1-1.7,0.1-2.6c0-0.9,0-1.4-0.1-1.6
		s-0.1-0.3-0.1-0.4c0-0.1,0.1-0.1,0.2-0.1C288.7,369.1,288.9,369.2,289.2,369.3z M290.7,372.2c0.2-0.5,0.3-1,0.3-1.2
		c0-0.1,0-0.2,0-0.2c0-0.1,0-0.1,0-0.1c0-0.1,0-0.2,0.2-0.2c0.1,0,0.2,0,0.4,0.1c0.2,0.1,0.2,0.2,0.2,0.3c0,0.1,0,0.2-0.1,0.2
		c-0.1,0.1-0.3,0.6-0.6,1.5c0.3,0.3,0.4,0.6,0.5,0.8c0.1,0.2,0.1,0.3,0.1,0.5c0,0.3-0.1,0.5-0.2,0.5c-0.1,0-0.2-0.1-0.3-0.3
		c-0.1-0.2-0.2-0.5-0.4-0.8c-0.3,0.7-0.6,1.2-0.9,1.5c-0.3,0.3-0.5,0.5-0.6,0.5c0,0,0,0,0-0.1s0-0.1,0.1-0.2
		c0.3-0.5,0.7-1.2,1.2-2.2c-0.4-0.7-0.7-1.2-0.8-1.4c0-0.1-0.1-0.1-0.1-0.2c0-0.1,0-0.1,0.1-0.1c0,0,0.1,0,0.1,0
		c0,0,0.2,0.2,0.4,0.5C290.5,371.9,290.7,372.1,290.7,372.2z M293.4,372.7c0.6,0.7,0.9,1.2,0.9,1.5c0,0.4-0.1,0.6-0.2,0.6
		c-0.1,0-0.2-0.1-0.4-0.4c-0.1-0.3-0.3-0.6-0.6-1c-0.3,0.6-0.6,1.1-1,1.4c-0.3,0.3-0.6,0.5-0.7,0.5c0,0-0.1,0-0.1-0.1s0-0.1,0.1-0.2
		c0.4-0.5,0.9-1.2,1.3-2.2c-0.1-0.2-0.4-0.6-0.8-1.1c-0.1-0.1-0.1-0.1-0.1-0.2s0-0.1,0.1-0.1c0,0,0.1,0,0.2,0.1l0.4,0.4
		c0.2,0.2,0.3,0.3,0.4,0.4c0.2-0.5,0.3-1,0.3-1.4c0-0.1,0-0.2,0-0.3c0-0.1,0-0.1,0-0.2s0-0.1,0.1-0.1s0.2,0.1,0.4,0.2
		c0.2,0.1,0.3,0.2,0.3,0.4c0,0.1,0,0.1-0.1,0.2C293.9,371.1,293.7,371.7,293.4,372.7z"/>
	<path d="M303.6,371.1c0.9-0.1,2-0.3,3.2-0.5c0.1,0,0.1,0,0.2,0c0.3,0,0.6,0.1,1,0.2c0.3,0.1,0.5,0.3,0.5,0.4c0,0.1,0,0.1-0.1,0.2
		c-0.1,0.1-0.2,0.1-0.4,0.1c-0.5-0.1-1.2-0.1-2-0.1c-0.8,0-1.7,0.1-2.7,0.2c0.2,0.1,0.4,0.2,0.5,0.2s0.1,0.1,0.1,0.2
		c0,0.1,0,0.1,0,0.2c-0.1,0.3-0.1,0.8-0.1,1.5c0,0.7,0,1.2,0,1.5l0,1c0,0.5,0,0.9-0.1,1.2c-0.1,0.3-0.1,0.4-0.3,0.4
		s-0.2-0.1-0.4-0.4c-0.1-0.3-0.2-0.5-0.2-0.6s0-0.2,0-0.3c0.1-0.2,0.2-0.6,0.2-1.1c0.1-0.5,0.1-1,0.1-1.5c0-1.1-0.1-1.8-0.3-2.1
		c-1.1,0.1-2,0.3-2.8,0.6c-0.1,0-0.2,0-0.4,0c-0.1,0-0.3-0.1-0.5-0.2c-0.2-0.1-0.3-0.2-0.3-0.3c0-0.1,0.1-0.1,0.4-0.1
		c0.3,0,1.6-0.1,3.9-0.4c0-1.2,0-2-0.1-2.4c0-0.4-0.1-0.7-0.3-0.9c-0.1-0.1-0.1-0.2-0.1-0.2c0-0.1,0.1-0.1,0.2-0.1
		c0.1,0,0.3,0.1,0.6,0.2c0.3,0.1,0.4,0.3,0.4,0.4c0,0.1,0,0.1-0.1,0.2c0,0.1-0.1,0.4-0.1,0.9c0.6-0.2,1-0.3,1.3-0.4s0.5-0.1,0.6-0.1
		c0.1,0,0.2,0,0.4,0.1c0.1,0.1,0.2,0.1,0.2,0.2c0,0.1,0,0.1-0.1,0.2s-0.3,0.1-0.7,0.2c-0.4,0.1-0.7,0.2-1,0.2c-0.2,0-0.4,0-0.6-0.1
		C303.7,369.9,303.7,370.5,303.6,371.1z M304.4,373c0.4,0,0.8,0,1.1,0.1s0.5,0.2,0.6,0.4s0.2,0.4,0.2,0.5c0,0.2-0.1,0.3-0.3,0.3
		c-0.1,0-0.2,0-0.4-0.1s-0.5-0.3-0.9-0.5c-0.4-0.3-0.7-0.4-0.7-0.5c-0.1,0-0.1-0.1-0.1-0.1c0,0,0-0.1,0.1-0.1
		C304,373,304.2,373,304.4,373z"/>
</g>
<rect x="54.4" y="214.3" fill="#DFD0BA" stroke="#000000" stroke-miterlimit="10" width="86" height="112"/>
<g>
	<path d="M63.4,229v-7.6h2.7c0.4,0,0.8,0,1.2,0.1c0.4,0.1,0.7,0.2,0.9,0.4c0.3,0.2,0.5,0.4,0.6,0.8c0.2,0.3,0.2,0.7,0.2,1.2
		c0,0.4-0.1,0.8-0.2,1.1c-0.2,0.3-0.4,0.6-0.6,0.8c-0.3,0.2-0.6,0.4-0.9,0.5c-0.4,0.1-0.7,0.2-1.1,0.2h-1v2.6H63.4z M65.2,225H66
		c0.9,0,1.4-0.4,1.4-1.2c0-0.4-0.1-0.7-0.4-0.8c-0.2-0.2-0.6-0.2-1-0.2h-0.9V225z"/>
	<path d="M70.3,229v-7.6H73c0.4,0,0.8,0,1.1,0.1c0.4,0.1,0.7,0.2,0.9,0.4c0.3,0.2,0.5,0.4,0.6,0.7s0.2,0.7,0.2,1.1
		c0,0.6-0.1,1-0.4,1.4c-0.2,0.4-0.6,0.6-1,0.8l1.7,3h-1.9l-1.5-2.7h-0.9v2.7H70.3z M72.1,224.9h0.8c0.9,0,1.4-0.4,1.4-1.1
		c0-0.4-0.1-0.6-0.3-0.8s-0.6-0.2-1-0.2h-0.8V224.9z"/>
	<path d="M77.6,229v-7.6h5v1.4h-3.3v1.5h2.8v1.4h-2.8v1.7h3.4v1.4H77.6z"/>
	<path d="M84.3,229v-7.6H87c0.4,0,0.8,0,1.1,0.1c0.4,0.1,0.7,0.2,0.9,0.4c0.3,0.2,0.5,0.4,0.6,0.7s0.2,0.7,0.2,1.1
		c0,0.6-0.1,1-0.4,1.4c-0.2,0.4-0.6,0.6-1,0.8l1.7,3h-1.9l-1.5-2.7H86v2.7H84.3z M86,224.9h0.8c0.9,0,1.4-0.4,1.4-1.1
		c0-0.4-0.1-0.6-0.3-0.8s-0.6-0.2-1-0.2H86V224.9z"/>
	<path d="M93.9,229.1c-0.4,0-0.9-0.1-1.2-0.3c-0.4-0.2-0.7-0.4-1-0.8c-0.3-0.3-0.5-0.7-0.6-1.2s-0.2-1.1-0.2-1.7
		c0-0.6,0.1-1.2,0.2-1.7s0.4-0.9,0.6-1.2c0.3-0.3,0.6-0.6,1-0.7c0.4-0.2,0.8-0.2,1.2-0.2c0.4,0,0.9,0.1,1.2,0.2
		c0.4,0.2,0.7,0.4,1,0.7c0.3,0.3,0.5,0.7,0.6,1.2s0.2,1,0.2,1.7c0,0.6-0.1,1.2-0.2,1.7s-0.4,0.9-0.6,1.2c-0.3,0.3-0.6,0.6-1,0.8
		C94.8,229,94.3,229.1,93.9,229.1z M93.9,227.6c0.4,0,0.7-0.2,0.9-0.6c0.2-0.4,0.3-1,0.3-1.9c0-0.8-0.1-1.4-0.3-1.8
		c-0.2-0.4-0.5-0.6-0.9-0.6s-0.7,0.2-0.9,0.6c-0.2,0.4-0.3,1-0.3,1.8c0,0.8,0.1,1.4,0.3,1.9C93.2,227.4,93.5,227.6,93.9,227.6z"/>
	<path d="M100.9,229.1c-0.9,0-1.6-0.3-2.1-0.8c-0.5-0.5-0.7-1.3-0.7-2.3v-4.7h1.7v4.8c0,0.5,0.1,0.8,0.3,1c0.2,0.2,0.4,0.4,0.8,0.4
		c0.4,0,0.6-0.1,0.8-0.4c0.2-0.2,0.3-0.6,0.3-1v-4.8h1.6v4.7c0,1-0.2,1.7-0.7,2.3C102.5,228.8,101.8,229.1,100.9,229.1z"/>
	<path d="M107,229v-6.1h-2.3v-1.4h6.2v1.4h-2.3v6.1H107z"/>
	<path d="M112.2,229v-1.4h1.8v-4.7h-1.8v-1.4h5.2v1.4h-1.8v4.7h1.8v1.4H112.2z"/>
	<path d="M119,229v-7.6h1.8l1.6,3.8l0.6,1.7h0c0-0.4-0.1-0.8-0.2-1.3c-0.1-0.5-0.1-1-0.1-1.4v-2.7h1.6v7.6h-1.8l-1.6-3.8l-0.6-1.6h0
		c0,0.4,0.1,0.9,0.2,1.3c0.1,0.5,0.1,0.9,0.1,1.4v2.7H119z"/>
	<path d="M129.2,229.1c-0.5,0-0.9-0.1-1.4-0.2c-0.4-0.2-0.8-0.4-1.1-0.7c-0.3-0.3-0.6-0.7-0.7-1.2c-0.2-0.5-0.3-1-0.3-1.7
		c0-0.6,0.1-1.2,0.3-1.7c0.2-0.5,0.4-0.9,0.7-1.2c0.3-0.3,0.7-0.6,1.1-0.8c0.4-0.2,0.9-0.3,1.4-0.3c0.5,0,0.9,0.1,1.3,0.3
		c0.4,0.2,0.7,0.4,0.9,0.7l-0.9,1.1c-0.2-0.2-0.3-0.3-0.5-0.4c-0.2-0.1-0.4-0.2-0.7-0.2c-0.2,0-0.5,0.1-0.7,0.2
		c-0.2,0.1-0.4,0.3-0.5,0.5c-0.2,0.2-0.3,0.5-0.4,0.8c-0.1,0.3-0.1,0.6-0.1,1c0,0.8,0.1,1.4,0.4,1.8c0.3,0.4,0.7,0.6,1.4,0.6
		c0.1,0,0.3,0,0.4-0.1c0.1,0,0.2-0.1,0.3-0.2v-1.3h-1.1v-1.4h2.6v3.5c-0.3,0.2-0.6,0.5-1,0.6C130.1,229,129.7,229.1,129.2,229.1z"/>
</g>
<rect x="64.5" y="239.1" fill="none" stroke="#000000" stroke-miterlimit="10" width="65.7" height="19.8"/>
<rect x="64.5" y="258.8" fill="none" stroke="#000000" stroke-miterlimit="10" width="65.7" height="19.8"/>
<g>
	<path d="M88,290.7V285h0.8l0.1,1h0c0.3-0.3,0.6-0.6,1-0.8c0.3-0.2,0.7-0.3,1.2-0.3c0.7,0,1.2,0.2,1.5,0.6c0.3,0.4,0.5,0.9,0.5,1.7
		v3.5h-1v-3.4c0-0.5-0.1-0.9-0.3-1.2c-0.2-0.3-0.5-0.4-1-0.4c-0.2,0-0.3,0-0.5,0.1c-0.1,0-0.3,0.1-0.4,0.2c-0.1,0.1-0.3,0.2-0.4,0.3
		c-0.1,0.1-0.3,0.3-0.5,0.4v3.9H88z"/>
	<path d="M96.8,290.8c-0.3,0-0.5,0-0.7-0.1c-0.2-0.1-0.4-0.2-0.6-0.3c-0.2-0.1-0.3-0.3-0.4-0.5s-0.2-0.4-0.2-0.7
		c0-0.3,0.1-0.6,0.2-0.8c0.2-0.2,0.4-0.4,0.7-0.6c0.3-0.2,0.8-0.3,1.3-0.4c0.5-0.1,1.1-0.2,1.9-0.3c0-0.2,0-0.4-0.1-0.5
		c-0.1-0.2-0.1-0.3-0.3-0.4c-0.1-0.1-0.3-0.2-0.5-0.3c-0.2-0.1-0.4-0.1-0.7-0.1c-0.4,0-0.7,0.1-1.1,0.2s-0.6,0.3-0.9,0.5l-0.4-0.6
		c0.1-0.1,0.3-0.2,0.5-0.3s0.4-0.2,0.6-0.3c0.2-0.1,0.4-0.1,0.7-0.2s0.5-0.1,0.7-0.1c0.8,0,1.3,0.2,1.7,0.6c0.4,0.4,0.6,1,0.6,1.7
		v3.5h-0.8l-0.1-0.8h0c-0.3,0.2-0.7,0.5-1.1,0.6C97.5,290.7,97.2,290.8,96.8,290.8z M97,290c0.3,0,0.6-0.1,1-0.2
		c0.3-0.1,0.6-0.3,1-0.6v-1.5c-0.6,0-1.1,0.1-1.5,0.2c-0.4,0.1-0.7,0.2-1,0.3c-0.2,0.1-0.4,0.3-0.5,0.4s-0.2,0.3-0.2,0.5
		c0,0.2,0,0.3,0.1,0.4c0.1,0.1,0.2,0.2,0.3,0.3c0.1,0.1,0.2,0.1,0.4,0.2S96.8,290,97,290z"/>
	<path d="M105.4,290.8c-0.4,0-0.8-0.1-1-0.2c-0.3-0.1-0.5-0.3-0.7-0.5c-0.2-0.2-0.3-0.5-0.4-0.7s-0.1-0.6-0.1-1v-2.7h-1.6v-0.7
		l1.6-0.1l0.1-1.8h0.8v1.8h2.8v0.8h-2.8v2.7c0,0.3,0,0.5,0.1,0.7c0,0.2,0.1,0.4,0.2,0.5c0.1,0.1,0.3,0.2,0.4,0.3
		c0.2,0.1,0.4,0.1,0.7,0.1s0.5,0,0.7-0.1c0.2,0,0.4-0.1,0.6-0.2l0.2,0.7c-0.3,0.1-0.5,0.2-0.8,0.2
		C106.1,290.8,105.8,290.8,105.4,290.8z"/>
</g>
<rect x="64.5" y="278.6" fill="none" stroke="#000000" stroke-miterlimit="10" width="65.7" height="19.8"/>
<g>
	<path d="M77.2,270.9v-5.6h0.8L78,266h0c0.1-0.3,0.3-0.5,0.5-0.6c0.2-0.2,0.5-0.2,0.8-0.2c0.5,0,0.9,0.3,1.1,1
		c0.2-0.3,0.3-0.5,0.5-0.7c0.2-0.2,0.5-0.3,0.8-0.3c0.4,0,0.7,0.1,0.9,0.4c0.2,0.3,0.3,0.7,0.3,1.3v4h-1v-4c0-0.7-0.2-1-0.6-1
		c-0.2,0-0.4,0.1-0.5,0.2s-0.3,0.4-0.4,0.7v4.1h-0.9v-4c0-0.3,0-0.6-0.1-0.7c-0.1-0.2-0.2-0.2-0.4-0.2c-0.2,0-0.4,0.1-0.5,0.2
		s-0.3,0.4-0.4,0.7v4.1H77.2z"/>
	<path d="M86.3,271c-0.3,0-0.5,0-0.7-0.1c-0.2-0.1-0.4-0.2-0.6-0.3c-0.2-0.1-0.3-0.3-0.4-0.5s-0.2-0.4-0.2-0.7
		c0-0.3,0.1-0.6,0.2-0.8c0.2-0.2,0.4-0.4,0.7-0.6c0.3-0.2,0.8-0.3,1.3-0.4c0.5-0.1,1.1-0.2,1.9-0.3c0-0.2,0-0.4-0.1-0.5
		c-0.1-0.2-0.1-0.3-0.3-0.4c-0.1-0.1-0.3-0.2-0.5-0.3c-0.2-0.1-0.4-0.1-0.7-0.1c-0.4,0-0.7,0.1-1.1,0.2s-0.6,0.3-0.9,0.5l-0.4-0.6
		c0.1-0.1,0.3-0.2,0.5-0.3s0.4-0.2,0.6-0.3c0.2-0.1,0.4-0.1,0.7-0.2s0.5-0.1,0.7-0.1c0.8,0,1.3,0.2,1.7,0.6c0.4,0.4,0.6,1,0.6,1.7
		v3.5h-0.8l-0.1-0.8h0c-0.3,0.2-0.7,0.5-1.1,0.6C87.1,270.9,86.7,271,86.3,271z M86.6,270.3c0.3,0,0.6-0.1,1-0.2
		c0.3-0.1,0.6-0.3,1-0.6V268c-0.6,0-1.1,0.1-1.5,0.2c-0.4,0.1-0.7,0.2-1,0.3c-0.2,0.1-0.4,0.3-0.5,0.4s-0.2,0.3-0.2,0.5
		c0,0.2,0,0.3,0.1,0.4c0.1,0.1,0.2,0.2,0.3,0.3c0.1,0.1,0.2,0.1,0.4,0.2S86.4,270.3,86.6,270.3z"/>
	<path d="M91.5,270.9v-5.6h0.8l0.1,1h0c0.3-0.3,0.6-0.6,1-0.8c0.3-0.2,0.7-0.3,1.2-0.3c0.7,0,1.2,0.2,1.5,0.6
		c0.3,0.4,0.5,0.9,0.5,1.7v3.5h-1v-3.4c0-0.5-0.1-0.9-0.3-1.2c-0.2-0.3-0.5-0.4-1-0.4c-0.2,0-0.3,0-0.5,0.1c-0.1,0-0.3,0.1-0.4,0.2
		c-0.1,0.1-0.3,0.2-0.4,0.3c-0.1,0.1-0.3,0.3-0.5,0.4v3.9H91.5z"/>
	<path d="M100.8,273.5c-0.8,0-1.5-0.1-1.9-0.4c-0.5-0.3-0.7-0.7-0.7-1.2c0-0.2,0.1-0.4,0.2-0.7c0.2-0.2,0.4-0.4,0.7-0.6v0
		c-0.2-0.1-0.3-0.2-0.4-0.3c-0.1-0.1-0.2-0.3-0.2-0.6c0-0.2,0.1-0.4,0.2-0.6c0.1-0.2,0.3-0.4,0.5-0.5v0c-0.2-0.1-0.4-0.3-0.5-0.6
		c-0.1-0.2-0.2-0.5-0.2-0.9c0-0.3,0.1-0.6,0.2-0.8s0.3-0.5,0.5-0.6c0.2-0.2,0.4-0.3,0.7-0.4c0.3-0.1,0.6-0.1,0.9-0.1
		c0.3,0,0.6,0,0.8,0.1h2.3v0.8h-1.5c0.1,0.1,0.2,0.3,0.3,0.5c0.1,0.2,0.1,0.4,0.1,0.6c0,0.3-0.1,0.6-0.2,0.8
		c-0.1,0.2-0.3,0.4-0.5,0.6s-0.4,0.3-0.7,0.4c-0.3,0.1-0.6,0.1-0.9,0.1c-0.1,0-0.3,0-0.5-0.1c-0.2,0-0.3-0.1-0.5-0.2
		c-0.3,0.2-0.4,0.4-0.4,0.6c0,0.2,0.1,0.4,0.3,0.5c0.2,0.1,0.5,0.2,0.9,0.2h1.3c0.7,0,1.3,0.1,1.6,0.3c0.4,0.2,0.5,0.5,0.5,1
		c0,0.3-0.1,0.5-0.2,0.8c-0.1,0.2-0.4,0.4-0.6,0.6c-0.3,0.2-0.6,0.3-1,0.4C101.7,273.4,101.3,273.5,100.8,273.5z M100.9,272.8
		c0.3,0,0.6,0,0.9-0.1c0.3-0.1,0.5-0.1,0.7-0.2s0.3-0.2,0.4-0.4s0.1-0.3,0.1-0.4c0-0.3-0.1-0.5-0.3-0.5s-0.5-0.1-1-0.1h-1.1
		c-0.2,0-0.3,0-0.5,0c-0.1,0-0.3,0-0.4-0.1c-0.3,0.1-0.5,0.3-0.6,0.5c-0.1,0.2-0.2,0.3-0.2,0.5c0,0.3,0.2,0.5,0.5,0.7
		C99.8,272.7,100.3,272.8,100.9,272.8z M100.8,268.5c0.4,0,0.7-0.1,0.9-0.4s0.4-0.6,0.4-1c0-0.2,0-0.4-0.1-0.5
		c-0.1-0.2-0.2-0.3-0.3-0.4c-0.1-0.1-0.3-0.2-0.4-0.3c-0.2-0.1-0.3-0.1-0.5-0.1s-0.3,0-0.5,0.1c-0.2,0.1-0.3,0.2-0.4,0.3
		c-0.1,0.1-0.2,0.3-0.3,0.4c-0.1,0.2-0.1,0.3-0.1,0.5c0,0.4,0.1,0.7,0.4,1S100.4,268.5,100.8,268.5z"/>
	<path d="M109.1,271c-0.6,0-1.1-0.2-1.4-0.5c-0.3-0.3-0.5-0.8-0.5-1.5v-5.6h-2v-0.8h3v6.4c0,0.4,0.1,0.7,0.3,0.9
		c0.2,0.2,0.5,0.3,0.8,0.3c0.3,0,0.7-0.1,1.1-0.3l0.2,0.7c-0.3,0.1-0.5,0.2-0.7,0.2C109.6,271,109.4,271,109.1,271z"/>
	<path d="M115.1,271c-0.4,0-0.8-0.1-1.2-0.2s-0.7-0.3-1-0.6c-0.3-0.3-0.5-0.6-0.6-0.9c-0.2-0.4-0.2-0.8-0.2-1.3
		c0-0.5,0.1-0.9,0.2-1.2c0.2-0.4,0.4-0.7,0.6-0.9c0.3-0.3,0.6-0.5,0.9-0.6c0.3-0.1,0.7-0.2,1.1-0.2c0.4,0,0.8,0.1,1.1,0.2
		c0.3,0.1,0.6,0.3,0.8,0.5c0.2,0.2,0.4,0.5,0.5,0.8c0.1,0.3,0.2,0.7,0.2,1.1c0,0.1,0,0.2,0,0.3c0,0.1,0,0.2,0,0.3h-4.4
		c0.1,0.6,0.3,1.1,0.7,1.4c0.4,0.3,0.9,0.5,1.5,0.5c0.3,0,0.6,0,0.9-0.1s0.5-0.2,0.8-0.4l0.3,0.6c-0.3,0.2-0.6,0.3-1,0.5
		C116,271,115.6,271,115.1,271z M115,265.9c-0.2,0-0.5,0-0.7,0.1c-0.2,0.1-0.4,0.2-0.6,0.3c-0.2,0.1-0.3,0.3-0.4,0.5
		c-0.1,0.2-0.2,0.5-0.2,0.7h3.6c0-0.6-0.2-1-0.5-1.3S115.5,265.9,115,265.9z"/>
</g>
<g>
	<path d="M88.6,251.1v-5.6h0.8l0.1,1.3h0c0.3-0.5,0.7-0.8,1.1-1.1c0.4-0.3,0.9-0.4,1.4-0.4c0.2,0,0.4,0,0.6,0.1
		c0.2,0,0.4,0.1,0.5,0.2l-0.2,0.8c-0.2-0.1-0.4-0.1-0.5-0.2s-0.3,0-0.5,0c-0.4,0-0.8,0.1-1.2,0.4s-0.8,0.7-1.1,1.2v3.3H88.6z"/>
	<path d="M96.8,251.3c-0.3,0-0.5,0-0.7-0.1c-0.2-0.1-0.4-0.2-0.6-0.3c-0.2-0.1-0.3-0.3-0.4-0.5s-0.2-0.4-0.2-0.7
		c0-0.3,0.1-0.6,0.2-0.8c0.2-0.2,0.4-0.4,0.7-0.6c0.3-0.2,0.8-0.3,1.3-0.4c0.5-0.1,1.1-0.2,1.9-0.3c0-0.2,0-0.4-0.1-0.5
		c-0.1-0.2-0.1-0.3-0.3-0.4c-0.1-0.1-0.3-0.2-0.5-0.3c-0.2-0.1-0.4-0.1-0.7-0.1c-0.4,0-0.7,0.1-1.1,0.2s-0.6,0.3-0.9,0.5l-0.4-0.6
		c0.1-0.1,0.3-0.2,0.5-0.3s0.4-0.2,0.6-0.3c0.2-0.1,0.4-0.1,0.7-0.2s0.5-0.1,0.7-0.1c0.8,0,1.3,0.2,1.7,0.6c0.4,0.4,0.6,1,0.6,1.7
		v3.5h-0.8l-0.1-0.8h0c-0.3,0.2-0.7,0.5-1.1,0.6C97.5,251.2,97.2,251.3,96.8,251.3z M97,250.5c0.3,0,0.6-0.1,1-0.2
		c0.3-0.1,0.6-0.3,1-0.6v-1.5c-0.6,0-1.1,0.1-1.5,0.2c-0.4,0.1-0.7,0.2-1,0.3c-0.2,0.1-0.4,0.3-0.5,0.4s-0.2,0.3-0.2,0.5
		c0,0.2,0,0.3,0.1,0.4c0.1,0.1,0.2,0.2,0.3,0.3c0.1,0.1,0.2,0.1,0.4,0.2S96.8,250.5,97,250.5z"/>
	<path d="M102.2,251.1l-1.2-5.6h1l0.7,3.3c0.1,0.3,0.1,0.5,0.1,0.8c0,0.2,0.1,0.5,0.1,0.8h0c0-0.3,0.1-0.5,0.1-0.8
		c0.1-0.3,0.1-0.5,0.2-0.8l0.7-2.9h1l0.7,2.9c0.1,0.3,0.1,0.5,0.2,0.8c0.1,0.2,0.1,0.5,0.2,0.8h0c0-0.3,0.1-0.5,0.1-0.8
		c0-0.2,0.1-0.5,0.1-0.8l0.7-3.3h0.9l-1.2,5.6h-1.2l-0.6-2.7c-0.1-0.4-0.2-1-0.3-1.7h0c-0.1,0.7-0.2,1.3-0.3,1.7l-0.6,2.7H102.2z"/>
</g>
<rect x="154.5" y="86.7" fill="#DFD0BA" stroke="#000000" stroke-miterlimit="10" width="86" height="112"/>
<g>
	<path d="M181,101.4v-1.4h1.8v-4.7H181v-1.4h5.2v1.4h-1.8v4.7h1.8v1.4H181z"/>
	<path d="M187.8,101.4v-7.6h1.8l1.6,3.8l0.6,1.7h0c0-0.4-0.1-0.8-0.2-1.3c-0.1-0.5-0.1-1-0.1-1.4v-2.7h1.6v7.6h-1.8l-1.6-3.8
		l-0.6-1.6h0c0,0.4,0.1,0.9,0.2,1.3c0.1,0.5,0.1,0.9,0.1,1.4v2.7H187.8z"/>
	<path d="M194.9,101.4v-7.6h2.7c0.4,0,0.8,0,1.2,0.1c0.4,0.1,0.7,0.2,0.9,0.4c0.3,0.2,0.5,0.4,0.6,0.8c0.2,0.3,0.2,0.7,0.2,1.2
		c0,0.4-0.1,0.8-0.2,1.1c-0.2,0.3-0.4,0.6-0.6,0.8c-0.3,0.2-0.6,0.4-0.9,0.5c-0.4,0.1-0.7,0.2-1.1,0.2h-1v2.6H194.9z M196.6,97.4
		h0.9c0.9,0,1.4-0.4,1.4-1.2c0-0.4-0.1-0.7-0.4-0.8c-0.2-0.2-0.6-0.2-1-0.2h-0.9V97.4z"/>
	<path d="M204.5,101.5c-0.9,0-1.6-0.3-2.1-0.8c-0.5-0.5-0.7-1.3-0.7-2.3v-4.7h1.7v4.8c0,0.5,0.1,0.8,0.3,1c0.2,0.2,0.4,0.4,0.8,0.4
		c0.4,0,0.6-0.1,0.8-0.4c0.2-0.2,0.3-0.6,0.3-1v-4.8h1.6v4.7c0,1-0.2,1.7-0.7,2.3C206.1,101.2,205.4,101.5,204.5,101.5z"/>
	<path d="M210.6,101.4v-6.1h-2.3v-1.4h6.2v1.4h-2.3v6.1H210.6z"/>
</g>
<rect x="164.6" y="111.5" fill="none" stroke="#000000" stroke-miterlimit="10" width="65.7" height="19.8"/>
<g>
	<path d="M179.4,163v-4.9h-1.6v-0.7l1.6-0.1v-0.5c0-0.7,0.2-1.2,0.6-1.7c0.4-0.4,0.9-0.6,1.7-0.6c0.6,0,1.1,0.1,1.6,0.3l-0.2,0.7
		c-0.2-0.1-0.4-0.2-0.6-0.2s-0.4-0.1-0.7-0.1c-0.5,0-0.9,0.1-1.1,0.4c-0.2,0.3-0.3,0.6-0.3,1.1v0.5h2.4v0.8h-2.4v4.9H179.4z"/>
	<path d="M187.3,163v-4.9h-2.6v-0.8h3.6v5.6H187.3z M187.6,156.2c-0.2,0-0.4-0.1-0.5-0.2c-0.1-0.1-0.2-0.3-0.2-0.5
		c0-0.2,0.1-0.4,0.2-0.5c0.1-0.1,0.3-0.2,0.5-0.2c0.2,0,0.4,0.1,0.5,0.2s0.2,0.3,0.2,0.5c0,0.2-0.1,0.4-0.2,0.5
		S187.8,156.2,187.6,156.2z"/>
	<path d="M195.3,163.2c-0.6,0-1.1-0.2-1.4-0.5c-0.3-0.3-0.5-0.8-0.5-1.5v-5.6h-2v-0.8h3v6.4c0,0.4,0.1,0.7,0.3,0.9
		c0.2,0.2,0.5,0.3,0.8,0.3c0.3,0,0.7-0.1,1.1-0.3l0.2,0.7c-0.3,0.1-0.5,0.2-0.7,0.2C195.8,163.2,195.6,163.2,195.3,163.2z"/>
	<path d="M202.1,163.2c-0.4,0-0.8-0.1-1-0.2c-0.3-0.1-0.5-0.3-0.7-0.5c-0.2-0.2-0.3-0.5-0.4-0.7s-0.1-0.6-0.1-1v-2.7h-1.6v-0.7
		l1.6-0.1l0.1-1.8h0.8v1.8h2.8v0.8h-2.8v2.7c0,0.3,0,0.5,0.1,0.7c0,0.2,0.1,0.4,0.2,0.5c0.1,0.1,0.3,0.2,0.4,0.3
		c0.2,0.1,0.4,0.1,0.7,0.1s0.5,0,0.7-0.1c0.2,0,0.4-0.1,0.6-0.2l0.2,0.7c-0.3,0.1-0.5,0.2-0.8,0.2
		C202.8,163.2,202.4,163.2,202.1,163.2z"/>
	<path d="M208.3,163.2c-0.4,0-0.8-0.1-1.2-0.2s-0.7-0.3-1-0.6c-0.3-0.3-0.5-0.6-0.6-0.9c-0.2-0.4-0.2-0.8-0.2-1.3
		c0-0.5,0.1-0.9,0.2-1.2c0.2-0.4,0.4-0.7,0.6-0.9c0.3-0.3,0.6-0.5,0.9-0.6c0.3-0.1,0.7-0.2,1.1-0.2c0.4,0,0.8,0.1,1.1,0.2
		c0.3,0.1,0.6,0.3,0.8,0.5c0.2,0.2,0.4,0.5,0.5,0.8c0.1,0.3,0.2,0.7,0.2,1.1c0,0.1,0,0.2,0,0.3c0,0.1,0,0.2,0,0.3h-4.4
		c0.1,0.6,0.3,1.1,0.7,1.4c0.4,0.3,0.9,0.5,1.5,0.5c0.3,0,0.6,0,0.9-0.1s0.5-0.2,0.8-0.4l0.3,0.6c-0.3,0.2-0.6,0.3-1,0.5
		C209.2,163.1,208.8,163.2,208.3,163.2z M208.2,158c-0.2,0-0.5,0-0.7,0.1c-0.2,0.1-0.4,0.2-0.6,0.3c-0.2,0.1-0.3,0.3-0.4,0.5
		c-0.1,0.2-0.2,0.5-0.2,0.7h3.6c0-0.6-0.2-1-0.5-1.3S208.6,158,208.2,158z"/>
	<path d="M213.1,163v-5.6h0.8l0.1,1.3h0c0.3-0.5,0.7-0.8,1.1-1.1c0.4-0.3,0.9-0.4,1.4-0.4c0.2,0,0.4,0,0.6,0.1
		c0.2,0,0.4,0.1,0.5,0.2l-0.2,0.8c-0.2-0.1-0.4-0.1-0.5-0.2s-0.3,0-0.5,0c-0.4,0-0.8,0.1-1.2,0.4s-0.8,0.7-1.1,1.2v3.3H213.1z"/>
</g>
<g>
	<path d="M188.1,143.3v-5.6h0.8l0.1,1h0c0.3-0.3,0.6-0.6,1-0.8c0.3-0.2,0.7-0.3,1.2-0.3c0.7,0,1.2,0.2,1.5,0.6
		c0.3,0.4,0.5,0.9,0.5,1.7v3.5h-1v-3.4c0-0.5-0.1-0.9-0.3-1.2c-0.2-0.3-0.5-0.4-1-0.4c-0.2,0-0.3,0-0.5,0.1c-0.1,0-0.3,0.1-0.4,0.2
		c-0.1,0.1-0.3,0.2-0.4,0.3c-0.1,0.1-0.3,0.3-0.5,0.4v3.9H188.1z"/>
	<path d="M196.9,143.4c-0.3,0-0.5,0-0.7-0.1c-0.2-0.1-0.4-0.2-0.6-0.3c-0.2-0.1-0.3-0.3-0.4-0.5s-0.2-0.4-0.2-0.7
		c0-0.3,0.1-0.6,0.2-0.8c0.2-0.2,0.4-0.4,0.7-0.6c0.3-0.2,0.8-0.3,1.3-0.4c0.5-0.1,1.1-0.2,1.9-0.3c0-0.2,0-0.4-0.1-0.5
		c-0.1-0.2-0.1-0.3-0.3-0.4c-0.1-0.1-0.3-0.2-0.5-0.3c-0.2-0.1-0.4-0.1-0.7-0.1c-0.4,0-0.7,0.1-1.1,0.2s-0.6,0.3-0.9,0.5l-0.4-0.6
		c0.1-0.1,0.3-0.2,0.5-0.3s0.4-0.2,0.6-0.3c0.2-0.1,0.4-0.1,0.7-0.2s0.5-0.1,0.7-0.1c0.8,0,1.3,0.2,1.7,0.6c0.4,0.4,0.6,1,0.6,1.7
		v3.5h-0.8l-0.1-0.8h0c-0.3,0.2-0.7,0.5-1.1,0.6C197.7,143.3,197.3,143.4,196.9,143.4z M197.1,142.7c0.3,0,0.6-0.1,1-0.2
		c0.3-0.1,0.6-0.3,1-0.6v-1.5c-0.6,0-1.1,0.1-1.5,0.2c-0.4,0.1-0.7,0.2-1,0.3c-0.2,0.1-0.4,0.3-0.5,0.4s-0.2,0.3-0.2,0.5
		c0,0.2,0,0.3,0.1,0.4c0.1,0.1,0.2,0.2,0.3,0.3c0.1,0.1,0.2,0.1,0.4,0.2S197,142.7,197.1,142.7z"/>
	<path d="M205.6,143.4c-0.4,0-0.8-0.1-1-0.2c-0.3-0.1-0.5-0.3-0.7-0.5c-0.2-0.2-0.3-0.5-0.4-0.7s-0.1-0.6-0.1-1v-2.7h-1.6v-0.7
		l1.6-0.1l0.1-1.8h0.8v1.8h2.8v0.8h-2.8v2.7c0,0.3,0,0.5,0.1,0.7c0,0.2,0.1,0.4,0.2,0.5c0.1,0.1,0.3,0.2,0.4,0.3
		c0.2,0.1,0.4,0.1,0.7,0.1s0.5,0,0.7-0.1c0.2,0,0.4-0.1,0.6-0.2l0.2,0.7c-0.3,0.1-0.5,0.2-0.8,0.2
		C206.2,143.4,205.9,143.4,205.6,143.4z"/>
</g>
<rect x="164.6" y="131.2" fill="none" stroke="#000000" stroke-miterlimit="10" width="65.7" height="19.8"/>
<g>
	<path d="M177.3,123.5v-5.6h0.8l0.1,0.7h0c0.1-0.3,0.3-0.5,0.5-0.6c0.2-0.2,0.5-0.2,0.8-0.2c0.5,0,0.9,0.3,1.1,1
		c0.2-0.3,0.3-0.5,0.5-0.7c0.2-0.2,0.5-0.3,0.8-0.3c0.4,0,0.7,0.1,0.9,0.4c0.2,0.3,0.3,0.7,0.3,1.3v4h-1v-4c0-0.7-0.2-1-0.6-1
		c-0.2,0-0.4,0.1-0.5,0.2s-0.3,0.4-0.4,0.7v4.1h-0.9v-4c0-0.3,0-0.6-0.1-0.7c-0.1-0.2-0.2-0.2-0.4-0.2c-0.2,0-0.4,0.1-0.5,0.2
		s-0.3,0.4-0.4,0.7v4.1H177.3z"/>
	<path d="M186.4,123.7c-0.3,0-0.5,0-0.7-0.1c-0.2-0.1-0.4-0.2-0.6-0.3c-0.2-0.1-0.3-0.3-0.4-0.5s-0.2-0.4-0.2-0.7
		c0-0.3,0.1-0.6,0.2-0.8c0.2-0.2,0.4-0.4,0.7-0.6c0.3-0.2,0.8-0.3,1.3-0.4c0.5-0.1,1.1-0.2,1.9-0.3c0-0.2,0-0.4-0.1-0.5
		c-0.1-0.2-0.1-0.3-0.3-0.4c-0.1-0.1-0.3-0.2-0.5-0.3c-0.2-0.1-0.4-0.1-0.7-0.1c-0.4,0-0.7,0.1-1.1,0.2s-0.6,0.3-0.9,0.5l-0.4-0.6
		c0.1-0.1,0.3-0.2,0.5-0.3s0.4-0.2,0.6-0.3c0.2-0.1,0.4-0.1,0.7-0.2s0.5-0.1,0.7-0.1c0.8,0,1.3,0.2,1.7,0.6c0.4,0.4,0.6,1,0.6,1.7
		v3.5h-0.8l-0.1-0.8h0c-0.3,0.2-0.7,0.5-1.1,0.6C187.2,123.6,186.8,123.7,186.4,123.7z M186.7,122.9c0.3,0,0.6-0.1,1-0.2
		c0.3-0.1,0.6-0.3,1-0.6v-1.5c-0.6,0-1.1,0.1-1.5,0.2c-0.4,0.1-0.7,0.2-1,0.3c-0.2,0.1-0.4,0.3-0.5,0.4s-0.2,0.3-0.2,0.5
		c0,0.2,0,0.3,0.1,0.4c0.1,0.1,0.2,0.2,0.3,0.3c0.1,0.1,0.2,0.1,0.4,0.2S186.5,122.9,186.7,122.9z"/>
	<path d="M191.6,123.5v-5.6h0.8l0.1,1h0c0.3-0.3,0.6-0.6,1-0.8c0.3-0.2,0.7-0.3,1.2-0.3c0.7,0,1.2,0.2,1.5,0.6
		c0.3,0.4,0.5,0.9,0.5,1.7v3.5h-1v-3.4c0-0.5-0.1-0.9-0.3-1.2c-0.2-0.3-0.5-0.4-1-0.4c-0.2,0-0.3,0-0.5,0.1c-0.1,0-0.3,0.1-0.4,0.2
		c-0.1,0.1-0.3,0.2-0.4,0.3c-0.1,0.1-0.3,0.3-0.5,0.4v3.9H191.6z"/>
	<path d="M200.9,126.1c-0.8,0-1.5-0.1-1.9-0.4c-0.5-0.3-0.7-0.7-0.7-1.2c0-0.2,0.1-0.4,0.2-0.7c0.2-0.2,0.4-0.4,0.7-0.6v0
		c-0.2-0.1-0.3-0.2-0.4-0.3c-0.1-0.1-0.2-0.3-0.2-0.6c0-0.2,0.1-0.4,0.2-0.6c0.1-0.2,0.3-0.4,0.5-0.5v0c-0.2-0.1-0.4-0.3-0.5-0.6
		c-0.1-0.2-0.2-0.5-0.2-0.9c0-0.3,0.1-0.6,0.2-0.8s0.3-0.5,0.5-0.6c0.2-0.2,0.4-0.3,0.7-0.4c0.3-0.1,0.6-0.1,0.9-0.1
		c0.3,0,0.6,0,0.8,0.1h2.3v0.8h-1.5c0.1,0.1,0.2,0.3,0.3,0.5c0.1,0.2,0.1,0.4,0.1,0.6c0,0.3-0.1,0.6-0.2,0.8
		c-0.1,0.2-0.3,0.4-0.5,0.6s-0.4,0.3-0.7,0.4c-0.3,0.1-0.6,0.1-0.9,0.1c-0.1,0-0.3,0-0.5-0.1c-0.2,0-0.3-0.1-0.5-0.2
		c-0.3,0.2-0.4,0.4-0.4,0.6c0,0.2,0.1,0.4,0.3,0.5c0.2,0.1,0.5,0.2,0.9,0.2h1.3c0.7,0,1.3,0.1,1.6,0.3c0.4,0.2,0.5,0.5,0.5,1
		c0,0.3-0.1,0.5-0.2,0.8c-0.1,0.2-0.4,0.4-0.6,0.6c-0.3,0.2-0.6,0.3-1,0.4C201.9,126.1,201.4,126.1,200.9,126.1z M201,125.4
		c0.3,0,0.6,0,0.9-0.1c0.3-0.1,0.5-0.1,0.7-0.2s0.3-0.2,0.4-0.4s0.1-0.3,0.1-0.4c0-0.3-0.1-0.5-0.3-0.5s-0.5-0.1-1-0.1h-1.1
		c-0.2,0-0.3,0-0.5,0c-0.1,0-0.3,0-0.4-0.1c-0.3,0.1-0.5,0.3-0.6,0.5c-0.1,0.2-0.2,0.3-0.2,0.5c0,0.3,0.2,0.5,0.5,0.7
		C200,125.3,200.4,125.4,201,125.4z M200.9,121.1c0.4,0,0.7-0.1,0.9-0.4s0.4-0.6,0.4-1c0-0.2,0-0.4-0.1-0.5
		c-0.1-0.2-0.2-0.3-0.3-0.4c-0.1-0.1-0.3-0.2-0.4-0.3c-0.2-0.1-0.3-0.1-0.5-0.1s-0.3,0-0.5,0.1c-0.2,0.1-0.3,0.2-0.4,0.3
		c-0.1,0.1-0.2,0.3-0.3,0.4c-0.1,0.2-0.1,0.3-0.1,0.5c0,0.4,0.1,0.7,0.4,1S200.5,121.1,200.9,121.1z"/>
	<path d="M209.2,123.7c-0.6,0-1.1-0.2-1.4-0.5c-0.3-0.3-0.5-0.8-0.5-1.5V116h-2v-0.8h3v6.4c0,0.4,0.1,0.7,0.3,0.9
		c0.2,0.2,0.5,0.3,0.8,0.3c0.3,0,0.7-0.1,1.1-0.3l0.2,0.7c-0.3,0.1-0.5,0.2-0.7,0.2C209.8,123.6,209.5,123.7,209.2,123.7z"/>
	<path d="M215.3,123.7c-0.4,0-0.8-0.1-1.2-0.2s-0.7-0.3-1-0.6c-0.3-0.3-0.5-0.6-0.6-0.9c-0.2-0.4-0.2-0.8-0.2-1.3
		c0-0.5,0.1-0.9,0.2-1.2c0.2-0.4,0.4-0.7,0.6-0.9c0.3-0.3,0.6-0.5,0.9-0.6c0.3-0.1,0.7-0.2,1.1-0.2c0.4,0,0.8,0.1,1.1,0.2
		c0.3,0.1,0.6,0.3,0.8,0.5c0.2,0.2,0.4,0.5,0.5,0.8c0.1,0.3,0.2,0.7,0.2,1.1c0,0.1,0,0.2,0,0.3c0,0.1,0,0.2,0,0.3h-4.4
		c0.1,0.6,0.3,1.1,0.7,1.4c0.4,0.3,0.9,0.5,1.5,0.5c0.3,0,0.6,0,0.9-0.1s0.5-0.2,0.8-0.4l0.3,0.6c-0.3,0.2-0.6,0.3-1,0.5
		C216.1,123.6,215.7,123.7,215.3,123.7z M215.1,118.5c-0.2,0-0.5,0-0.7,0.1c-0.2,0.1-0.4,0.2-0.6,0.3c-0.2,0.1-0.3,0.3-0.4,0.5
		c-0.1,0.2-0.2,0.5-0.2,0.7h3.6c0-0.6-0.2-1-0.5-1.3S215.6,118.5,215.1,118.5z"/>
</g>
<rect x="164.6" y="151" fill="none" stroke="#000000" stroke-miterlimit="10" width="65.7" height="19.8"/>
<rect x="254.6" y="214.3" fill="#DFD0BA" stroke="#000000" stroke-miterlimit="10" width="86" height="112"/>
<g>
	<path d="M274.5,229v-7.6h5v1.4h-3.3v1.8h2.8v1.4h-2.8v2.9H274.5z"/>
	<path d="M283.7,229.1c-0.4,0-0.9-0.1-1.2-0.3c-0.4-0.2-0.7-0.4-1-0.8c-0.3-0.3-0.5-0.7-0.6-1.2s-0.2-1.1-0.2-1.7
		c0-0.6,0.1-1.2,0.2-1.7s0.4-0.9,0.6-1.2c0.3-0.3,0.6-0.6,1-0.7c0.4-0.2,0.8-0.2,1.2-0.2c0.4,0,0.9,0.1,1.2,0.2
		c0.4,0.2,0.7,0.4,1,0.7c0.3,0.3,0.5,0.7,0.6,1.2s0.2,1,0.2,1.7c0,0.6-0.1,1.2-0.2,1.7s-0.4,0.9-0.6,1.2c-0.3,0.3-0.6,0.6-1,0.8
		C284.6,229,284.2,229.1,283.7,229.1z M283.7,227.6c0.4,0,0.7-0.2,0.9-0.6c0.2-0.4,0.3-1,0.3-1.9c0-0.8-0.1-1.4-0.3-1.8
		c-0.2-0.4-0.5-0.6-0.9-0.6s-0.7,0.2-0.9,0.6c-0.2,0.4-0.3,1-0.3,1.8c0,0.8,0.1,1.4,0.3,1.9C283,227.4,283.3,227.6,283.7,227.6z"/>
	<path d="M288,229v-7.6h2.7c0.4,0,0.8,0,1.1,0.1c0.4,0.1,0.7,0.2,0.9,0.4c0.3,0.2,0.5,0.4,0.6,0.7s0.2,0.7,0.2,1.1
		c0,0.6-0.1,1-0.4,1.4c-0.2,0.4-0.6,0.6-1,0.8l1.7,3h-1.9l-1.5-2.7h-0.9v2.7H288z M289.7,224.9h0.8c0.9,0,1.4-0.4,1.4-1.1
		c0-0.4-0.1-0.6-0.3-0.8s-0.6-0.2-1-0.2h-0.8V224.9z"/>
	<path d="M295.2,229l-1-7.6h1.8l0.2,4c0,0.3,0,0.6,0,0.9s0,0.6,0,1h0c0.1-0.3,0.1-0.7,0.2-1c0.1-0.3,0.1-0.6,0.2-0.9l0.5-2.1h1.1
		l0.5,2.1c0.1,0.3,0.1,0.6,0.2,0.9s0.1,0.6,0.2,1h0c0-0.3,0-0.7,0-1s0-0.6,0-0.9l0.2-4h1.7l-0.9,7.6h-1.8l-0.4-2.3
		c0-0.2-0.1-0.5-0.1-0.7c0-0.2-0.1-0.5-0.1-0.7h0c0,0.2-0.1,0.5-0.1,0.7c0,0.2-0.1,0.5-0.1,0.7L297,229H295.2z"/>
	<path d="M304.6,229.1c-0.4,0-0.9-0.1-1.2-0.3c-0.4-0.2-0.7-0.4-1-0.8s-0.5-0.7-0.6-1.2c-0.1-0.5-0.2-1.1-0.2-1.7
		c0-0.6,0.1-1.2,0.2-1.7c0.1-0.5,0.4-0.9,0.6-1.2s0.6-0.6,1-0.7c0.4-0.2,0.8-0.2,1.2-0.2s0.9,0.1,1.2,0.2c0.4,0.2,0.7,0.4,1,0.7
		c0.3,0.3,0.5,0.7,0.6,1.2c0.1,0.5,0.2,1,0.2,1.7c0,0.6-0.1,1.2-0.2,1.7c-0.1,0.5-0.4,0.9-0.6,1.2c-0.3,0.3-0.6,0.6-1,0.8
		C305.5,229,305,229.1,304.6,229.1z M304.6,227.6c0.4,0,0.7-0.2,0.9-0.6c0.2-0.4,0.3-1,0.3-1.9c0-0.8-0.1-1.4-0.3-1.8
		c-0.2-0.4-0.5-0.6-0.9-0.6s-0.7,0.2-0.9,0.6c-0.2,0.4-0.3,1-0.3,1.8c0,0.8,0.1,1.4,0.3,1.9C303.9,227.4,304.2,227.6,304.6,227.6z"
		/>
	<path d="M308.9,229v-7.6h2.7c0.4,0,0.8,0,1.1,0.1c0.4,0.1,0.7,0.2,0.9,0.4c0.3,0.2,0.5,0.4,0.6,0.7c0.2,0.3,0.2,0.7,0.2,1.1
		c0,0.6-0.1,1-0.4,1.4c-0.2,0.4-0.6,0.6-1,0.8l1.7,3h-1.9l-1.5-2.7h-0.9v2.7H308.9z M310.6,224.9h0.8c0.9,0,1.4-0.4,1.4-1.1
		c0-0.4-0.1-0.6-0.3-0.8c-0.2-0.1-0.6-0.2-1-0.2h-0.8V224.9z"/>
	<path d="M315.9,229v-7.6h2.1c0.5,0,1,0.1,1.5,0.2c0.4,0.1,0.8,0.4,1.1,0.7c0.3,0.3,0.6,0.7,0.7,1.2s0.3,1,0.3,1.7
		c0,0.6-0.1,1.2-0.3,1.7s-0.4,0.9-0.7,1.2c-0.3,0.3-0.7,0.5-1.1,0.7c-0.4,0.2-0.9,0.2-1.4,0.2H315.9z M317.6,227.6h0.3
		c0.3,0,0.6,0,0.8-0.1c0.2-0.1,0.5-0.2,0.6-0.4s0.3-0.4,0.4-0.7c0.1-0.3,0.1-0.7,0.1-1.1c0-0.4,0-0.8-0.1-1.1
		c-0.1-0.3-0.2-0.5-0.4-0.7s-0.4-0.3-0.6-0.4c-0.2-0.1-0.5-0.1-0.8-0.1h-0.3V227.6z"/>
</g>
<rect x="264.8" y="239.1" fill="none" stroke="#000000" stroke-miterlimit="10" width="65.7" height="19.8"/>
<g>
	<path d="M277.4,251.1v-5.6h0.8l0.1,0.7h0c0.1-0.3,0.3-0.5,0.5-0.6c0.2-0.2,0.5-0.2,0.8-0.2c0.5,0,0.9,0.3,1.1,1
		c0.2-0.3,0.3-0.5,0.5-0.7c0.2-0.2,0.5-0.3,0.8-0.3c0.4,0,0.7,0.1,0.9,0.4c0.2,0.3,0.3,0.7,0.3,1.3v4h-1v-4c0-0.7-0.2-1-0.6-1
		c-0.2,0-0.4,0.1-0.5,0.2s-0.3,0.4-0.4,0.7v4.1h-0.9v-4c0-0.3,0-0.6-0.1-0.7c-0.1-0.2-0.2-0.2-0.4-0.2c-0.2,0-0.4,0.1-0.5,0.2
		s-0.3,0.4-0.4,0.7v4.1H277.4z"/>
	<path d="M286.6,251.3c-0.3,0-0.5,0-0.7-0.1c-0.2-0.1-0.4-0.2-0.6-0.3c-0.2-0.1-0.3-0.3-0.4-0.5s-0.2-0.4-0.2-0.7
		c0-0.3,0.1-0.6,0.2-0.8c0.2-0.2,0.4-0.4,0.7-0.6c0.3-0.2,0.8-0.3,1.3-0.4c0.5-0.1,1.1-0.2,1.9-0.3c0-0.2,0-0.4-0.1-0.5
		c-0.1-0.2-0.1-0.3-0.3-0.4c-0.1-0.1-0.3-0.2-0.5-0.3c-0.2-0.1-0.4-0.1-0.7-0.1c-0.4,0-0.7,0.1-1.1,0.2s-0.6,0.3-0.9,0.5l-0.4-0.6
		c0.1-0.1,0.3-0.2,0.5-0.3s0.4-0.2,0.6-0.3c0.2-0.1,0.4-0.1,0.7-0.2s0.5-0.1,0.7-0.1c0.8,0,1.3,0.2,1.7,0.6c0.4,0.4,0.6,1,0.6,1.7
		v3.5h-0.8l-0.1-0.8h0c-0.3,0.2-0.7,0.5-1.1,0.6C287.4,251.2,287,251.3,286.6,251.3z M286.8,250.5c0.3,0,0.6-0.1,1-0.2
		c0.3-0.1,0.6-0.3,1-0.6v-1.5c-0.6,0-1.1,0.1-1.5,0.2c-0.4,0.1-0.7,0.2-1,0.3c-0.2,0.1-0.4,0.3-0.5,0.4s-0.2,0.3-0.2,0.5
		c0,0.2,0,0.3,0.1,0.4c0.1,0.1,0.2,0.2,0.3,0.3c0.1,0.1,0.2,0.1,0.4,0.2S286.7,250.5,286.8,250.5z"/>
	<path d="M291.8,251.1v-5.6h0.8l0.1,1h0c0.3-0.3,0.6-0.6,1-0.8c0.3-0.2,0.7-0.3,1.2-0.3c0.7,0,1.2,0.2,1.5,0.6
		c0.3,0.4,0.5,0.9,0.5,1.7v3.5h-1v-3.4c0-0.5-0.1-0.9-0.3-1.2c-0.2-0.3-0.5-0.4-1-0.4c-0.2,0-0.3,0-0.5,0.1c-0.1,0-0.3,0.1-0.4,0.2
		c-0.1,0.1-0.3,0.2-0.4,0.3c-0.1,0.1-0.3,0.3-0.5,0.4v3.9H291.8z"/>
	<path d="M301.1,253.7c-0.8,0-1.5-0.1-1.9-0.4c-0.5-0.3-0.7-0.7-0.7-1.2c0-0.2,0.1-0.4,0.2-0.7c0.2-0.2,0.4-0.4,0.7-0.6v0
		c-0.2-0.1-0.3-0.2-0.4-0.3c-0.1-0.1-0.2-0.3-0.2-0.6c0-0.2,0.1-0.4,0.2-0.6c0.1-0.2,0.3-0.4,0.5-0.5v0c-0.2-0.1-0.4-0.3-0.5-0.6
		c-0.1-0.2-0.2-0.5-0.2-0.9c0-0.3,0.1-0.6,0.2-0.8c0.1-0.2,0.3-0.5,0.5-0.6c0.2-0.2,0.4-0.3,0.7-0.4s0.6-0.1,0.9-0.1
		c0.3,0,0.6,0,0.8,0.1h2.3v0.8h-1.5c0.1,0.1,0.2,0.3,0.3,0.5c0.1,0.2,0.1,0.4,0.1,0.6c0,0.3-0.1,0.6-0.2,0.8
		c-0.1,0.2-0.3,0.4-0.5,0.6s-0.4,0.3-0.7,0.4c-0.3,0.1-0.6,0.1-0.9,0.1c-0.1,0-0.3,0-0.5-0.1s-0.3-0.1-0.5-0.2
		c-0.3,0.2-0.4,0.4-0.4,0.6c0,0.2,0.1,0.4,0.3,0.5c0.2,0.1,0.5,0.2,0.9,0.2h1.3c0.7,0,1.3,0.1,1.6,0.3c0.4,0.2,0.5,0.5,0.5,1
		c0,0.3-0.1,0.5-0.2,0.8c-0.1,0.2-0.4,0.4-0.6,0.6c-0.3,0.2-0.6,0.3-1,0.4C302,253.7,301.6,253.7,301.1,253.7z M301.1,253
		c0.3,0,0.6,0,0.9-0.1c0.3-0.1,0.5-0.1,0.7-0.2s0.3-0.2,0.4-0.4s0.1-0.3,0.1-0.4c0-0.3-0.1-0.5-0.3-0.5s-0.5-0.1-1-0.1h-1.1
		c-0.2,0-0.3,0-0.5,0c-0.1,0-0.3,0-0.4-0.1c-0.3,0.1-0.5,0.3-0.6,0.5c-0.1,0.2-0.2,0.3-0.2,0.5c0,0.3,0.2,0.5,0.5,0.7
		S300.5,253,301.1,253z M301,248.7c0.4,0,0.7-0.1,0.9-0.4c0.3-0.2,0.4-0.6,0.4-1c0-0.2,0-0.4-0.1-0.5s-0.2-0.3-0.3-0.4
		c-0.1-0.1-0.3-0.2-0.4-0.3c-0.2-0.1-0.3-0.1-0.5-0.1s-0.3,0-0.5,0.1c-0.2,0.1-0.3,0.2-0.4,0.3c-0.1,0.1-0.2,0.3-0.3,0.4
		c-0.1,0.2-0.1,0.3-0.1,0.5c0,0.4,0.1,0.7,0.4,1C300.4,248.6,300.7,248.7,301,248.7z"/>
	<path d="M309.3,251.3c-0.6,0-1.1-0.2-1.4-0.5s-0.5-0.8-0.5-1.5v-5.6h-2v-0.8h3v6.4c0,0.4,0.1,0.7,0.3,0.9s0.5,0.3,0.8,0.3
		c0.3,0,0.7-0.1,1.1-0.3l0.2,0.7c-0.3,0.1-0.5,0.2-0.7,0.2S309.6,251.3,309.3,251.3z"/>
	<path d="M315.4,251.3c-0.4,0-0.8-0.1-1.2-0.2c-0.4-0.1-0.7-0.3-1-0.6c-0.3-0.3-0.5-0.6-0.7-0.9c-0.2-0.4-0.2-0.8-0.2-1.3
		c0-0.5,0.1-0.9,0.2-1.2c0.2-0.4,0.4-0.7,0.6-0.9c0.3-0.3,0.6-0.5,0.9-0.6c0.3-0.1,0.7-0.2,1.1-0.2c0.4,0,0.8,0.1,1.1,0.2
		c0.3,0.1,0.6,0.3,0.8,0.5c0.2,0.2,0.4,0.5,0.5,0.8c0.1,0.3,0.2,0.7,0.2,1.1c0,0.1,0,0.2,0,0.3c0,0.1,0,0.2,0,0.3h-4.4
		c0.1,0.6,0.3,1.1,0.7,1.4c0.4,0.3,0.9,0.5,1.5,0.5c0.3,0,0.6,0,0.9-0.1c0.3-0.1,0.5-0.2,0.8-0.4l0.3,0.6c-0.3,0.2-0.6,0.3-1,0.5
		C316.3,251.2,315.8,251.3,315.4,251.3z M315.3,246.1c-0.2,0-0.5,0-0.7,0.1c-0.2,0.1-0.4,0.2-0.6,0.3c-0.2,0.1-0.3,0.3-0.4,0.5
		c-0.1,0.2-0.2,0.5-0.2,0.7h3.6c0-0.6-0.2-1-0.5-1.3C316.1,246.3,315.7,246.1,315.3,246.1z"/>
</g>
<g>
	<g>
		<path d="M279.6,270.9V266H278v-0.7l1.6-0.1v-0.5c0-0.7,0.2-1.2,0.6-1.7c0.4-0.4,0.9-0.6,1.7-0.6c0.6,0,1.1,0.1,1.6,0.3l-0.2,0.7
			c-0.2-0.1-0.4-0.2-0.6-0.2s-0.4-0.1-0.7-0.1c-0.5,0-0.9,0.1-1.1,0.4c-0.2,0.3-0.3,0.6-0.3,1.1v0.5h2.4v0.8h-2.4v4.9H279.6z"/>
		<path d="M287.4,270.9V266h-2.6v-0.8h3.6v5.6H287.4z M287.8,264.1c-0.2,0-0.4-0.1-0.5-0.2c-0.1-0.1-0.2-0.3-0.2-0.5
			c0-0.2,0.1-0.4,0.2-0.5c0.1-0.1,0.3-0.2,0.5-0.2c0.2,0,0.4,0.1,0.5,0.2s0.2,0.3,0.2,0.5c0,0.2-0.1,0.4-0.2,0.5
			S288,264.1,287.8,264.1z"/>
		<path d="M295.4,271c-0.6,0-1.1-0.2-1.4-0.5c-0.3-0.3-0.5-0.8-0.5-1.5v-5.6h-2v-0.8h3v6.4c0,0.4,0.1,0.7,0.3,0.9
			c0.2,0.2,0.5,0.3,0.8,0.3c0.3,0,0.7-0.1,1.1-0.3l0.2,0.7c-0.3,0.1-0.5,0.2-0.7,0.2C296,271,295.7,271,295.4,271z"/>
		<path d="M302.2,271c-0.4,0-0.8-0.1-1-0.2c-0.3-0.1-0.5-0.3-0.7-0.5c-0.2-0.2-0.3-0.5-0.4-0.7c-0.1-0.3-0.1-0.6-0.1-1V266h-1.6
			v-0.7l1.6-0.1l0.1-1.8h0.8v1.8h2.8v0.8H301v2.7c0,0.3,0,0.5,0.1,0.7c0,0.2,0.1,0.4,0.2,0.5c0.1,0.1,0.3,0.2,0.4,0.3
			c0.2,0.1,0.4,0.1,0.7,0.1s0.5,0,0.7-0.1s0.4-0.1,0.6-0.2l0.2,0.7c-0.3,0.1-0.5,0.2-0.8,0.2C302.9,271,302.6,271,302.2,271z"/>
		<path d="M308.4,271c-0.4,0-0.8-0.1-1.2-0.2s-0.7-0.3-1-0.6c-0.3-0.3-0.5-0.6-0.6-0.9c-0.2-0.4-0.2-0.8-0.2-1.3
			c0-0.5,0.1-0.9,0.2-1.2c0.2-0.4,0.4-0.7,0.6-0.9c0.3-0.3,0.6-0.5,0.9-0.6c0.3-0.1,0.7-0.2,1.1-0.2c0.4,0,0.8,0.1,1.1,0.2
			c0.3,0.1,0.6,0.3,0.8,0.5c0.2,0.2,0.4,0.5,0.5,0.8c0.1,0.3,0.2,0.7,0.2,1.1c0,0.1,0,0.2,0,0.3c0,0.1,0,0.2,0,0.3h-4.4
			c0.1,0.6,0.3,1.1,0.7,1.4c0.4,0.3,0.9,0.5,1.5,0.5c0.3,0,0.6,0,0.9-0.1s0.5-0.2,0.8-0.4l0.3,0.6c-0.3,0.2-0.6,0.3-1,0.5
			C309.3,271,308.9,271,308.4,271z M308.3,265.9c-0.2,0-0.5,0-0.7,0.1c-0.2,0.1-0.4,0.2-0.6,0.3c-0.2,0.1-0.3,0.3-0.4,0.5
			c-0.1,0.2-0.2,0.5-0.2,0.7h3.6c0-0.6-0.2-1-0.5-1.3S308.8,265.9,308.3,265.9z"/>
		<path d="M313.3,270.9v-5.6h0.8l0.1,1.3h0c0.3-0.5,0.7-0.8,1.1-1.1c0.4-0.3,0.9-0.4,1.4-0.4c0.2,0,0.4,0,0.6,0.1
			c0.2,0,0.4,0.1,0.5,0.2l-0.2,0.8c-0.2-0.1-0.4-0.1-0.5-0.2c-0.1,0-0.3,0-0.5,0c-0.4,0-0.8,0.1-1.2,0.4s-0.8,0.7-1.1,1.2v3.3H313.3
			z"/>
	</g>
	<rect x="264.8" y="258.8" fill="none" stroke="#000000" stroke-miterlimit="10" width="65.7" height="19.8"/>
</g>
<rect x="354.7" y="86.7" fill="#DFD0BA" stroke="#000000" stroke-miterlimit="10" width="86" height="112"/>
<g>
	<path d="M380.4,101.5c-0.4,0-0.9-0.1-1.2-0.3c-0.4-0.2-0.7-0.4-1-0.8c-0.3-0.3-0.5-0.7-0.6-1.2c-0.1-0.5-0.2-1.1-0.2-1.7
		c0-0.6,0.1-1.2,0.2-1.7c0.1-0.5,0.4-0.9,0.6-1.2c0.3-0.3,0.6-0.6,1-0.7c0.4-0.2,0.8-0.2,1.2-0.2s0.9,0.1,1.2,0.2
		c0.4,0.2,0.7,0.4,1,0.7s0.5,0.7,0.6,1.2c0.1,0.5,0.2,1,0.2,1.7c0,0.6-0.1,1.2-0.2,1.7c-0.1,0.5-0.4,0.9-0.6,1.2s-0.6,0.6-1,0.8
		C381.2,101.4,380.8,101.5,380.4,101.5z M380.4,100c0.4,0,0.7-0.2,0.9-0.6c0.2-0.4,0.3-1,0.3-1.9c0-0.8-0.1-1.4-0.3-1.8
		c-0.2-0.4-0.5-0.6-0.9-0.6s-0.7,0.2-0.9,0.6c-0.2,0.4-0.3,1-0.3,1.8c0,0.8,0.1,1.4,0.3,1.9C379.7,99.8,380,100,380.4,100z"/>
	<path d="M387.4,101.5c-0.9,0-1.6-0.3-2.1-0.8c-0.5-0.5-0.7-1.3-0.7-2.3v-4.7h1.7v4.8c0,0.5,0.1,0.8,0.3,1s0.4,0.4,0.8,0.4
		c0.4,0,0.6-0.1,0.8-0.4c0.2-0.2,0.3-0.6,0.3-1v-4.8h1.6v4.7c0,1-0.2,1.7-0.7,2.3C389,101.2,388.3,101.5,387.4,101.5z"/>
	<path d="M393.4,101.4v-6.1h-2.3v-1.4h6.2v1.4h-2.3v6.1H393.4z"/>
	<path d="M398.6,101.4v-7.6h2.7c0.4,0,0.8,0,1.2,0.1c0.4,0.1,0.7,0.2,0.9,0.4c0.3,0.2,0.5,0.4,0.6,0.8c0.2,0.3,0.2,0.7,0.2,1.2
		c0,0.4-0.1,0.8-0.2,1.1c-0.2,0.3-0.4,0.6-0.6,0.8c-0.3,0.2-0.6,0.4-0.9,0.5c-0.4,0.1-0.7,0.2-1.1,0.2h-1v2.6H398.6z M400.3,97.4
		h0.9c0.9,0,1.4-0.4,1.4-1.2c0-0.4-0.1-0.7-0.4-0.8c-0.2-0.2-0.6-0.2-1-0.2h-0.9V97.4z"/>
	<path d="M408.2,101.5c-0.9,0-1.6-0.3-2.1-0.8c-0.5-0.5-0.7-1.3-0.7-2.3v-4.7h1.7v4.8c0,0.5,0.1,0.8,0.3,1s0.4,0.4,0.8,0.4
		c0.4,0,0.6-0.1,0.8-0.4c0.2-0.2,0.3-0.6,0.3-1v-4.8h1.6v4.7c0,1-0.2,1.7-0.7,2.3C409.8,101.2,409.2,101.5,408.2,101.5z"/>
	<path d="M414.3,101.4v-6.1h-2.3v-1.4h6.2v1.4H416v6.1H414.3z"/>
</g>
<rect x="364.9" y="111.5" fill="none" stroke="#000000" stroke-miterlimit="10" width="65.7" height="19.8"/>
<rect x="364.9" y="131.2" fill="none" stroke="#000000" stroke-miterlimit="10" width="65.7" height="19.8"/>
<g>
	<path d="M379.7,182.8V178h-1.6v-0.7l1.6-0.1v-0.5c0-0.7,0.2-1.2,0.6-1.7s0.9-0.6,1.7-0.6c0.6,0,1.1,0.1,1.6,0.3l-0.2,0.7
		c-0.2-0.1-0.4-0.2-0.6-0.2c-0.2,0-0.4-0.1-0.7-0.1c-0.5,0-0.9,0.1-1.1,0.4c-0.2,0.3-0.3,0.6-0.3,1.1v0.5h2.4v0.8h-2.4v4.9H379.7z"
		/>
	<path d="M387.5,182.8V178h-2.6v-0.8h3.6v5.6H387.5z M387.9,176c-0.2,0-0.4-0.1-0.5-0.2c-0.1-0.1-0.2-0.3-0.2-0.5
		c0-0.2,0.1-0.4,0.2-0.5c0.1-0.1,0.3-0.2,0.5-0.2s0.4,0.1,0.5,0.2c0.1,0.1,0.2,0.3,0.2,0.5c0,0.2-0.1,0.4-0.2,0.5
		C388.3,175.9,388.1,176,387.9,176z"/>
	<path d="M395.5,183c-0.6,0-1.1-0.2-1.4-0.5c-0.3-0.3-0.5-0.8-0.5-1.5v-5.6h-2v-0.8h3v6.4c0,0.4,0.1,0.7,0.3,0.9s0.5,0.3,0.8,0.3
		c0.3,0,0.7-0.1,1.1-0.3l0.2,0.7c-0.3,0.1-0.5,0.2-0.7,0.2S395.8,183,395.5,183z"/>
	<path d="M402.3,183c-0.4,0-0.8-0.1-1-0.2c-0.3-0.1-0.5-0.3-0.7-0.5c-0.2-0.2-0.3-0.5-0.4-0.7s-0.1-0.6-0.1-1V178h-1.6v-0.7l1.6-0.1
		l0.1-1.8h0.8v1.8h2.8v0.8h-2.8v2.7c0,0.3,0,0.5,0.1,0.7c0,0.2,0.1,0.4,0.2,0.5c0.1,0.1,0.3,0.2,0.4,0.3c0.2,0.1,0.4,0.1,0.7,0.1
		c0.3,0,0.5,0,0.7-0.1s0.4-0.1,0.6-0.2l0.2,0.7c-0.3,0.1-0.5,0.2-0.8,0.2C403,182.9,402.7,183,402.3,183z"/>
	<path d="M408.6,183c-0.4,0-0.8-0.1-1.2-0.2c-0.4-0.1-0.7-0.3-1-0.6c-0.3-0.3-0.5-0.6-0.7-0.9c-0.2-0.4-0.2-0.8-0.2-1.3
		c0-0.5,0.1-0.9,0.2-1.2c0.2-0.4,0.4-0.7,0.6-0.9c0.3-0.3,0.6-0.5,0.9-0.6c0.3-0.1,0.7-0.2,1.1-0.2c0.4,0,0.8,0.1,1.1,0.2
		c0.3,0.1,0.6,0.3,0.8,0.5c0.2,0.2,0.4,0.5,0.5,0.8c0.1,0.3,0.2,0.7,0.2,1.1c0,0.1,0,0.2,0,0.3c0,0.1,0,0.2,0,0.3h-4.4
		c0.1,0.6,0.3,1.1,0.7,1.4c0.4,0.3,0.9,0.5,1.5,0.5c0.3,0,0.6,0,0.9-0.1c0.3-0.1,0.5-0.2,0.8-0.4l0.3,0.6c-0.3,0.2-0.6,0.3-1,0.5
		C409.4,182.9,409,183,408.6,183z M408.4,177.8c-0.2,0-0.5,0-0.7,0.1c-0.2,0.1-0.4,0.2-0.6,0.3c-0.2,0.1-0.3,0.3-0.4,0.5
		c-0.1,0.2-0.2,0.5-0.2,0.7h3.6c0-0.6-0.2-1-0.5-1.3C409.3,177.9,408.9,177.8,408.4,177.8z"/>
	<path d="M413.4,182.8v-5.6h0.8l0.1,1.3h0c0.3-0.5,0.7-0.8,1.1-1.1c0.4-0.3,0.9-0.4,1.4-0.4c0.2,0,0.4,0,0.6,0.1
		c0.2,0,0.4,0.1,0.5,0.2l-0.2,0.8c-0.2-0.1-0.4-0.1-0.5-0.2c-0.1,0-0.3,0-0.5,0c-0.4,0-0.8,0.1-1.2,0.4s-0.8,0.7-1.1,1.2v3.3H413.4z
		"/>
</g>
<g>
	<path d="M388.4,163v-5.6h0.8l0.1,1h0c0.3-0.3,0.6-0.6,1-0.8c0.3-0.2,0.7-0.3,1.2-0.3c0.7,0,1.2,0.2,1.5,0.6s0.5,0.9,0.5,1.7v3.5h-1
		v-3.4c0-0.5-0.1-0.9-0.3-1.2c-0.2-0.3-0.5-0.4-1-0.4c-0.2,0-0.3,0-0.5,0.1c-0.1,0-0.3,0.1-0.4,0.2c-0.1,0.1-0.3,0.2-0.4,0.3
		c-0.1,0.1-0.3,0.3-0.5,0.4v3.9H388.4z"/>
	<path d="M397.1,163.2c-0.3,0-0.5,0-0.7-0.1c-0.2-0.1-0.4-0.2-0.6-0.3c-0.2-0.1-0.3-0.3-0.4-0.5s-0.2-0.4-0.2-0.7
		c0-0.3,0.1-0.6,0.2-0.8c0.2-0.2,0.4-0.4,0.7-0.6c0.3-0.2,0.8-0.3,1.3-0.4c0.5-0.1,1.1-0.2,1.9-0.3c0-0.2,0-0.4-0.1-0.5
		c-0.1-0.2-0.1-0.3-0.3-0.4c-0.1-0.1-0.3-0.2-0.5-0.3s-0.4-0.1-0.7-0.1c-0.4,0-0.7,0.1-1.1,0.2c-0.3,0.1-0.6,0.3-0.9,0.5l-0.4-0.6
		c0.1-0.1,0.3-0.2,0.5-0.3c0.2-0.1,0.4-0.2,0.6-0.3c0.2-0.1,0.4-0.1,0.7-0.2c0.2-0.1,0.5-0.1,0.7-0.1c0.8,0,1.3,0.2,1.7,0.6
		c0.4,0.4,0.6,1,0.6,1.7v3.5h-0.8l-0.1-0.8h0c-0.3,0.2-0.7,0.5-1,0.6C397.9,163.1,397.5,163.2,397.1,163.2z M397.4,162.4
		c0.3,0,0.6-0.1,1-0.2c0.3-0.1,0.6-0.3,1-0.6v-1.5c-0.6,0-1.1,0.1-1.5,0.2c-0.4,0.1-0.7,0.2-1,0.3c-0.2,0.1-0.4,0.3-0.5,0.4
		s-0.2,0.3-0.2,0.5c0,0.2,0,0.3,0.1,0.4c0.1,0.1,0.2,0.2,0.3,0.3c0.1,0.1,0.2,0.1,0.4,0.2C397.1,162.4,397.2,162.4,397.4,162.4z"/>
	<path d="M405.8,163.2c-0.4,0-0.8-0.1-1-0.2c-0.3-0.1-0.5-0.3-0.7-0.5c-0.2-0.2-0.3-0.5-0.4-0.7s-0.1-0.6-0.1-1v-2.7h-1.6v-0.7
		l1.6-0.1l0.1-1.8h0.8v1.8h2.8v0.8h-2.8v2.7c0,0.3,0,0.5,0.1,0.7c0,0.2,0.1,0.4,0.2,0.5c0.1,0.1,0.3,0.2,0.4,0.3
		c0.2,0.1,0.4,0.1,0.7,0.1c0.3,0,0.5,0,0.7-0.1s0.4-0.1,0.6-0.2l0.2,0.7c-0.3,0.1-0.5,0.2-0.8,0.2
		C406.5,163.2,406.2,163.2,405.8,163.2z"/>
</g>
<rect x="364.9" y="151" fill="none" stroke="#000000" stroke-miterlimit="10" width="65.7" height="19.8"/>
<g>
	<path d="M377.6,143.3v-5.6h0.8l0.1,0.7h0c0.1-0.3,0.3-0.5,0.5-0.6c0.2-0.2,0.5-0.2,0.8-0.2c0.5,0,0.9,0.3,1.1,1
		c0.2-0.3,0.3-0.5,0.5-0.7c0.2-0.2,0.5-0.3,0.8-0.3c0.4,0,0.7,0.1,0.9,0.4c0.2,0.3,0.3,0.7,0.3,1.3v4h-1v-4c0-0.7-0.2-1-0.6-1
		c-0.2,0-0.4,0.1-0.5,0.2s-0.3,0.4-0.4,0.7v4.1H380v-4c0-0.3,0-0.6-0.1-0.7c-0.1-0.2-0.2-0.2-0.4-0.2c-0.2,0-0.4,0.1-0.5,0.2
		c-0.1,0.1-0.3,0.4-0.4,0.7v4.1H377.6z"/>
	<path d="M386.7,143.4c-0.3,0-0.5,0-0.7-0.1c-0.2-0.1-0.4-0.2-0.6-0.3c-0.2-0.1-0.3-0.3-0.4-0.5s-0.2-0.4-0.2-0.7
		c0-0.3,0.1-0.6,0.2-0.8c0.2-0.2,0.4-0.4,0.7-0.6c0.3-0.2,0.8-0.3,1.3-0.4c0.5-0.1,1.1-0.2,1.9-0.3c0-0.2,0-0.4-0.1-0.5
		c-0.1-0.2-0.1-0.3-0.3-0.4c-0.1-0.1-0.3-0.2-0.5-0.3s-0.4-0.1-0.7-0.1c-0.4,0-0.7,0.1-1.1,0.2c-0.3,0.1-0.6,0.3-0.9,0.5l-0.4-0.6
		c0.1-0.1,0.3-0.2,0.5-0.3c0.2-0.1,0.4-0.2,0.6-0.3c0.2-0.1,0.4-0.1,0.7-0.2c0.2-0.1,0.5-0.1,0.7-0.1c0.8,0,1.3,0.2,1.7,0.6
		c0.4,0.4,0.6,1,0.6,1.7v3.5H389l-0.1-0.8h0c-0.3,0.2-0.7,0.5-1,0.6C387.5,143.3,387.1,143.4,386.7,143.4z M387,142.7
		c0.3,0,0.6-0.1,1-0.2c0.3-0.1,0.6-0.3,1-0.6v-1.5c-0.6,0-1.1,0.1-1.5,0.2c-0.4,0.1-0.7,0.2-1,0.3c-0.2,0.1-0.4,0.3-0.5,0.4
		s-0.2,0.3-0.2,0.5c0,0.2,0,0.3,0.1,0.4c0.1,0.1,0.2,0.2,0.3,0.3c0.1,0.1,0.2,0.1,0.4,0.2C386.6,142.6,386.8,142.7,387,142.7z"/>
	<path d="M391.9,143.3v-5.6h0.8l0.1,1h0c0.3-0.3,0.6-0.6,1-0.8c0.3-0.2,0.7-0.3,1.2-0.3c0.7,0,1.2,0.2,1.5,0.6s0.5,0.9,0.5,1.7v3.5
		h-1v-3.4c0-0.5-0.1-0.9-0.3-1.2c-0.2-0.3-0.5-0.4-1-0.4c-0.2,0-0.3,0-0.5,0.1c-0.1,0-0.3,0.1-0.4,0.2c-0.1,0.1-0.3,0.2-0.4,0.3
		c-0.1,0.1-0.3,0.3-0.5,0.4v3.9H391.9z"/>
	<path d="M401.2,145.9c-0.8,0-1.5-0.1-1.9-0.4c-0.5-0.3-0.7-0.7-0.7-1.2c0-0.2,0.1-0.4,0.2-0.7c0.2-0.2,0.4-0.4,0.7-0.6v0
		c-0.2-0.1-0.3-0.2-0.4-0.3s-0.2-0.3-0.2-0.6c0-0.2,0.1-0.4,0.2-0.6s0.3-0.4,0.5-0.5v0c-0.2-0.1-0.4-0.3-0.5-0.6
		c-0.1-0.2-0.2-0.5-0.2-0.9c0-0.3,0.1-0.6,0.2-0.8s0.3-0.5,0.5-0.6c0.2-0.2,0.4-0.3,0.7-0.4s0.6-0.1,0.9-0.1c0.3,0,0.6,0,0.8,0.1
		h2.3v0.8h-1.5c0.1,0.1,0.2,0.3,0.3,0.5c0.1,0.2,0.1,0.4,0.1,0.6c0,0.3-0.1,0.6-0.2,0.8c-0.1,0.2-0.3,0.4-0.5,0.6s-0.4,0.3-0.7,0.4
		s-0.6,0.1-0.9,0.1c-0.1,0-0.3,0-0.5-0.1c-0.2,0-0.3-0.1-0.5-0.2c-0.3,0.2-0.4,0.4-0.4,0.6c0,0.2,0.1,0.4,0.3,0.5s0.5,0.2,0.9,0.2
		h1.3c0.7,0,1.3,0.1,1.6,0.3c0.4,0.2,0.5,0.5,0.5,1c0,0.3-0.1,0.5-0.2,0.8c-0.1,0.2-0.4,0.4-0.6,0.6c-0.3,0.2-0.6,0.3-1,0.4
		C402.1,145.8,401.7,145.9,401.2,145.9z M401.3,145.2c0.3,0,0.6,0,0.9-0.1c0.3-0.1,0.5-0.1,0.7-0.2s0.3-0.2,0.4-0.4s0.1-0.3,0.1-0.4
		c0-0.3-0.1-0.5-0.3-0.5s-0.5-0.1-1-0.1H401c-0.2,0-0.3,0-0.5,0c-0.1,0-0.3,0-0.4-0.1c-0.3,0.1-0.5,0.3-0.6,0.5
		c-0.1,0.2-0.2,0.3-0.2,0.5c0,0.3,0.2,0.5,0.5,0.7S400.7,145.2,401.3,145.2z M401.1,140.9c0.4,0,0.7-0.1,0.9-0.4
		c0.3-0.2,0.4-0.6,0.4-1c0-0.2,0-0.4-0.1-0.5c-0.1-0.2-0.2-0.3-0.3-0.4c-0.1-0.1-0.3-0.2-0.4-0.3c-0.2-0.1-0.3-0.1-0.5-0.1
		s-0.3,0-0.5,0.1c-0.2,0.1-0.3,0.2-0.4,0.3c-0.1,0.1-0.2,0.3-0.3,0.4c-0.1,0.2-0.1,0.3-0.1,0.5c0,0.4,0.1,0.7,0.4,1
		C400.5,140.7,400.8,140.9,401.1,140.9z"/>
	<path d="M409.5,143.4c-0.6,0-1.1-0.2-1.4-0.5c-0.3-0.3-0.5-0.8-0.5-1.5v-5.6h-2V135h3v6.4c0,0.4,0.1,0.7,0.3,0.9s0.5,0.3,0.8,0.3
		c0.3,0,0.7-0.1,1.1-0.3l0.2,0.7c-0.3,0.1-0.5,0.2-0.7,0.2S409.8,143.4,409.5,143.4z"/>
	<path d="M415.5,143.4c-0.4,0-0.8-0.1-1.2-0.2c-0.4-0.1-0.7-0.3-1-0.6c-0.3-0.3-0.5-0.6-0.7-0.9c-0.2-0.4-0.2-0.8-0.2-1.3
		c0-0.5,0.1-0.9,0.2-1.2c0.2-0.4,0.4-0.7,0.6-0.9c0.3-0.3,0.6-0.5,0.9-0.6c0.3-0.1,0.7-0.2,1.1-0.2c0.4,0,0.8,0.1,1.1,0.2
		c0.3,0.1,0.6,0.3,0.8,0.5c0.2,0.2,0.4,0.5,0.5,0.8c0.1,0.3,0.2,0.7,0.2,1.1c0,0.1,0,0.2,0,0.3c0,0.1,0,0.2,0,0.3h-4.4
		c0.1,0.6,0.3,1.1,0.7,1.4c0.4,0.3,0.9,0.5,1.5,0.5c0.3,0,0.6,0,0.9-0.1c0.3-0.1,0.5-0.2,0.8-0.4l0.3,0.6c-0.3,0.2-0.6,0.3-1,0.5
		C416.4,143.4,416,143.4,415.5,143.4z M415.4,138.3c-0.2,0-0.5,0-0.7,0.1c-0.2,0.1-0.4,0.2-0.6,0.3c-0.2,0.1-0.3,0.3-0.4,0.5
		c-0.1,0.2-0.2,0.5-0.2,0.7h3.6c0-0.6-0.2-1-0.5-1.3C416.3,138.4,415.9,138.3,415.4,138.3z"/>
</g>
<rect x="364.9" y="170.8" fill="none" stroke="#000000" stroke-miterlimit="10" width="65.7" height="19.8"/>
<g>
	<path d="M389,123.5v-5.6h0.8l0.1,1.3h0c0.3-0.5,0.7-0.8,1.1-1.1c0.4-0.3,0.9-0.4,1.4-0.4c0.2,0,0.4,0,0.6,0.1
		c0.2,0,0.4,0.1,0.5,0.2l-0.2,0.8c-0.2-0.1-0.4-0.1-0.5-0.2c-0.1,0-0.3,0-0.5,0c-0.4,0-0.8,0.1-1.2,0.4s-0.8,0.7-1.1,1.2v3.3H389z"
		/>
	<path d="M397.1,123.7c-0.3,0-0.5,0-0.7-0.1c-0.2-0.1-0.4-0.2-0.6-0.3c-0.2-0.1-0.3-0.3-0.4-0.5s-0.2-0.4-0.2-0.7
		c0-0.3,0.1-0.6,0.2-0.8c0.2-0.2,0.4-0.4,0.7-0.6c0.3-0.2,0.8-0.3,1.3-0.4c0.5-0.1,1.1-0.2,1.9-0.3c0-0.2,0-0.4-0.1-0.5
		c-0.1-0.2-0.1-0.3-0.3-0.4c-0.1-0.1-0.3-0.2-0.5-0.3s-0.4-0.1-0.7-0.1c-0.4,0-0.7,0.1-1.1,0.2c-0.3,0.1-0.6,0.3-0.9,0.5l-0.4-0.6
		c0.1-0.1,0.3-0.2,0.5-0.3c0.2-0.1,0.4-0.2,0.6-0.3c0.2-0.1,0.4-0.1,0.7-0.2c0.2-0.1,0.5-0.1,0.7-0.1c0.8,0,1.3,0.2,1.7,0.6
		c0.4,0.4,0.6,1,0.6,1.7v3.5h-0.8l-0.1-0.8h0c-0.3,0.2-0.7,0.5-1,0.6C397.9,123.6,397.5,123.7,397.1,123.7z M397.4,122.9
		c0.3,0,0.6-0.1,1-0.2c0.3-0.1,0.6-0.3,1-0.6v-1.5c-0.6,0-1.1,0.1-1.5,0.2c-0.4,0.1-0.7,0.2-1,0.3c-0.2,0.1-0.4,0.3-0.5,0.4
		s-0.2,0.3-0.2,0.5c0,0.2,0,0.3,0.1,0.4c0.1,0.1,0.2,0.2,0.3,0.3c0.1,0.1,0.2,0.1,0.4,0.2C397.1,122.9,397.2,122.9,397.4,122.9z"/>
	<path d="M402.6,123.5l-1.2-5.6h1l0.7,3.3c0.1,0.3,0.1,0.5,0.1,0.8c0,0.2,0.1,0.5,0.1,0.8h0c0-0.3,0.1-0.5,0.1-0.8
		c0.1-0.3,0.1-0.5,0.2-0.8l0.7-2.9h1l0.7,2.9c0.1,0.3,0.1,0.5,0.2,0.8c0.1,0.2,0.1,0.5,0.2,0.8h0c0-0.3,0.1-0.5,0.1-0.8
		c0-0.2,0.1-0.5,0.1-0.8l0.7-3.3h0.9l-1.2,5.6h-1.2l-0.6-2.7c-0.1-0.4-0.2-1-0.3-1.7h0c-0.1,0.7-0.2,1.3-0.3,1.7l-0.6,2.7H402.6z"/>
</g>
<rect x="454.9" y="214.3" fill="#DFD0BA" stroke="#000000" stroke-miterlimit="10" width="86" height="112"/>
<g>
	<path d="M460.5,229v-7.6h2.7c0.4,0,0.8,0,1.2,0.1c0.4,0.1,0.7,0.2,0.9,0.4c0.3,0.2,0.5,0.4,0.6,0.8c0.2,0.3,0.2,0.7,0.2,1.2
		c0,0.4-0.1,0.8-0.2,1.1c-0.2,0.3-0.4,0.6-0.6,0.8c-0.3,0.2-0.6,0.4-0.9,0.5c-0.4,0.1-0.7,0.2-1.1,0.2h-1v2.6H460.5z M462.2,225h0.9
		c0.9,0,1.4-0.4,1.4-1.2c0-0.4-0.1-0.7-0.4-0.8c-0.2-0.2-0.6-0.2-1-0.2h-0.9V225z"/>
	<path d="M470.1,229.1c-0.4,0-0.9-0.1-1.2-0.3c-0.4-0.2-0.7-0.4-1-0.8c-0.3-0.3-0.5-0.7-0.6-1.2c-0.1-0.5-0.2-1.1-0.2-1.7
		c0-0.6,0.1-1.2,0.2-1.7c0.1-0.5,0.4-0.9,0.6-1.2c0.3-0.3,0.6-0.6,1-0.7c0.4-0.2,0.8-0.2,1.2-0.2s0.9,0.1,1.2,0.2
		c0.4,0.2,0.7,0.4,1,0.7s0.5,0.7,0.6,1.2c0.1,0.5,0.2,1,0.2,1.7c0,0.6-0.1,1.2-0.2,1.7c-0.1,0.5-0.4,0.9-0.6,1.2s-0.6,0.6-1,0.8
		C470.9,229,470.5,229.1,470.1,229.1z M470.1,227.6c0.4,0,0.7-0.2,0.9-0.6c0.2-0.4,0.3-1,0.3-1.9c0-0.8-0.1-1.4-0.3-1.8
		c-0.2-0.4-0.5-0.6-0.9-0.6s-0.7,0.2-0.9,0.6c-0.2,0.4-0.3,1-0.3,1.8c0,0.8,0.1,1.4,0.3,1.9C469.3,227.4,469.7,227.6,470.1,227.6z"
		/>
	<path d="M477,229.1c-0.5,0-1-0.1-1.5-0.3s-1-0.5-1.4-0.8l1-1.2c0.3,0.2,0.6,0.4,0.9,0.6c0.3,0.1,0.7,0.2,1.1,0.2s0.6-0.1,0.8-0.2
		c0.2-0.1,0.3-0.3,0.3-0.5c0-0.1,0-0.2-0.1-0.3c-0.1-0.1-0.1-0.2-0.2-0.2c-0.1-0.1-0.2-0.1-0.4-0.2c-0.1-0.1-0.3-0.1-0.5-0.2l-1-0.4
		c-0.2-0.1-0.4-0.2-0.6-0.3c-0.2-0.1-0.4-0.3-0.5-0.4c-0.1-0.2-0.3-0.4-0.4-0.6c-0.1-0.2-0.1-0.5-0.1-0.7c0-0.3,0.1-0.6,0.2-0.9
		c0.1-0.3,0.3-0.5,0.6-0.7c0.2-0.2,0.5-0.4,0.9-0.5c0.3-0.1,0.7-0.2,1.1-0.2c0.5,0,0.9,0.1,1.3,0.3c0.4,0.2,0.8,0.4,1.2,0.7
		l-0.9,1.1c-0.3-0.2-0.5-0.3-0.8-0.4s-0.6-0.2-1-0.2c-0.3,0-0.5,0.1-0.7,0.2c-0.2,0.1-0.3,0.3-0.3,0.5s0.1,0.4,0.3,0.5
		c0.2,0.1,0.5,0.2,0.9,0.4l0.9,0.4c0.5,0.2,0.9,0.4,1.2,0.8c0.3,0.3,0.4,0.8,0.4,1.3c0,0.3-0.1,0.6-0.2,0.9
		c-0.1,0.3-0.3,0.5-0.6,0.7c-0.2,0.2-0.6,0.4-0.9,0.5S477.5,229.1,477,229.1z"/>
	<path d="M483.1,229v-6.1h-2.3v-1.4h6.2v1.4h-2.3v6.1H483.1z"/>
	<path d="M488.3,229v-7.6h2.7c0.4,0,0.8,0,1.1,0.1c0.4,0.1,0.7,0.2,0.9,0.4c0.3,0.2,0.5,0.4,0.6,0.7c0.2,0.3,0.2,0.7,0.2,1.1
		c0,0.6-0.1,1-0.4,1.4c-0.2,0.4-0.6,0.6-1,0.8l1.7,3h-1.9l-1.5-2.7H490v2.7H488.3z M490,224.9h0.8c0.9,0,1.4-0.4,1.4-1.1
		c0-0.4-0.1-0.6-0.3-0.8c-0.2-0.1-0.6-0.2-1-0.2H490V224.9z"/>
	<path d="M497.9,229.1c-0.4,0-0.9-0.1-1.2-0.3c-0.4-0.2-0.7-0.4-1-0.8c-0.3-0.3-0.5-0.7-0.6-1.2c-0.1-0.5-0.2-1.1-0.2-1.7
		c0-0.6,0.1-1.2,0.2-1.7c0.1-0.5,0.4-0.9,0.6-1.2c0.3-0.3,0.6-0.6,1-0.7c0.4-0.2,0.8-0.2,1.2-0.2s0.9,0.1,1.2,0.2
		c0.4,0.2,0.7,0.4,1,0.7s0.5,0.7,0.6,1.2c0.1,0.5,0.2,1,0.2,1.7c0,0.6-0.1,1.2-0.2,1.7c-0.1,0.5-0.4,0.9-0.6,1.2s-0.6,0.6-1,0.8
		C498.8,229,498.3,229.1,497.9,229.1z M497.9,227.6c0.4,0,0.7-0.2,0.9-0.6c0.2-0.4,0.3-1,0.3-1.9c0-0.8-0.1-1.4-0.3-1.8
		c-0.2-0.4-0.5-0.6-0.9-0.6s-0.7,0.2-0.9,0.6c-0.2,0.4-0.3,1-0.3,1.8c0,0.8,0.1,1.4,0.3,1.9C497.2,227.4,497.5,227.6,497.9,227.6z"
		/>
	<path d="M504.9,229.1c-0.9,0-1.6-0.3-2.1-0.8c-0.5-0.5-0.7-1.3-0.7-2.3v-4.7h1.7v4.8c0,0.5,0.1,0.8,0.3,1s0.4,0.4,0.8,0.4
		c0.4,0,0.6-0.1,0.8-0.4c0.2-0.2,0.3-0.6,0.3-1v-4.8h1.6v4.7c0,1-0.2,1.7-0.7,2.3C506.5,228.8,505.8,229.1,504.9,229.1z"/>
	<path d="M511,229v-6.1h-2.3v-1.4h6.2v1.4h-2.3v6.1H511z"/>
	<path d="M516.2,229v-1.4h1.8v-4.7h-1.8v-1.4h5.2v1.4h-1.8v4.7h1.8v1.4H516.2z"/>
	<path d="M523,229v-7.6h1.8l1.6,3.8l0.7,1.7h0c0-0.4-0.1-0.8-0.2-1.3c-0.1-0.5-0.1-1-0.1-1.4v-2.7h1.6v7.6h-1.8l-1.6-3.8l-0.6-1.6h0
		c0,0.4,0.1,0.9,0.2,1.3c0.1,0.5,0.1,0.9,0.1,1.4v2.7H523z"/>
	<path d="M533.2,229.1c-0.5,0-0.9-0.1-1.4-0.2c-0.4-0.2-0.8-0.4-1.1-0.7c-0.3-0.3-0.6-0.7-0.7-1.2s-0.3-1-0.3-1.7
		c0-0.6,0.1-1.2,0.3-1.7c0.2-0.5,0.4-0.9,0.7-1.2s0.7-0.6,1.1-0.8c0.4-0.2,0.9-0.3,1.4-0.3c0.5,0,0.9,0.1,1.3,0.3
		c0.4,0.2,0.7,0.4,0.9,0.7l-0.9,1.1c-0.2-0.2-0.3-0.3-0.5-0.4s-0.4-0.2-0.7-0.2c-0.2,0-0.5,0.1-0.7,0.2c-0.2,0.1-0.4,0.3-0.5,0.5
		c-0.2,0.2-0.3,0.5-0.4,0.8c-0.1,0.3-0.1,0.6-0.1,1c0,0.8,0.1,1.4,0.4,1.8s0.7,0.6,1.4,0.6c0.1,0,0.3,0,0.4-0.1
		c0.1,0,0.2-0.1,0.3-0.2v-1.3h-1.1v-1.4h2.6v3.5c-0.3,0.2-0.6,0.5-1,0.6C534.1,229,533.7,229.1,533.2,229.1z"/>
</g>
<g>
	<rect x="465" y="239.1" fill="none" stroke="#000000" stroke-miterlimit="10" width="65.7" height="19.8"/>
	<g>
		<path d="M488.5,270.9v-5.6h0.8l0.1,1h0c0.3-0.3,0.6-0.6,1-0.8c0.3-0.2,0.7-0.3,1.2-0.3c0.7,0,1.2,0.2,1.5,0.6s0.5,0.9,0.5,1.7v3.5
			h-1v-3.4c0-0.5-0.1-0.9-0.3-1.2c-0.2-0.3-0.5-0.4-1-0.4c-0.2,0-0.3,0-0.5,0.1c-0.1,0-0.3,0.1-0.4,0.2c-0.1,0.1-0.3,0.2-0.4,0.3
			c-0.1,0.1-0.3,0.3-0.5,0.4v3.9H488.5z"/>
		<path d="M497.3,271c-0.3,0-0.5,0-0.7-0.1c-0.2-0.1-0.4-0.2-0.6-0.3c-0.2-0.1-0.3-0.3-0.4-0.5s-0.2-0.4-0.2-0.7
			c0-0.3,0.1-0.6,0.2-0.8c0.2-0.2,0.4-0.4,0.7-0.6c0.3-0.2,0.8-0.3,1.3-0.4c0.5-0.1,1.1-0.2,1.9-0.3c0-0.2,0-0.4-0.1-0.5
			c-0.1-0.2-0.1-0.3-0.3-0.4c-0.1-0.1-0.3-0.2-0.5-0.3s-0.4-0.1-0.7-0.1c-0.4,0-0.7,0.1-1.1,0.2c-0.3,0.1-0.6,0.3-0.9,0.5l-0.4-0.6
			c0.1-0.1,0.3-0.2,0.5-0.3c0.2-0.1,0.4-0.2,0.6-0.3c0.2-0.1,0.4-0.1,0.7-0.2c0.2-0.1,0.5-0.1,0.7-0.1c0.8,0,1.3,0.2,1.7,0.6
			c0.4,0.4,0.6,1,0.6,1.7v3.5h-0.8l-0.1-0.8h0c-0.3,0.2-0.7,0.5-1,0.6C498.1,270.9,497.7,271,497.3,271z M497.5,270.3
			c0.3,0,0.6-0.1,1-0.2c0.3-0.1,0.6-0.3,1-0.6V268c-0.6,0-1.1,0.1-1.5,0.2c-0.4,0.1-0.7,0.2-1,0.3c-0.2,0.1-0.4,0.3-0.5,0.4
			s-0.2,0.3-0.2,0.5c0,0.2,0,0.3,0.1,0.4c0.1,0.1,0.2,0.2,0.3,0.3c0.1,0.1,0.2,0.1,0.4,0.2C497.2,270.3,497.4,270.3,497.5,270.3z"/>
		<path d="M506,271c-0.4,0-0.8-0.1-1-0.2c-0.3-0.1-0.5-0.3-0.7-0.5c-0.2-0.2-0.3-0.5-0.4-0.7s-0.1-0.6-0.1-1V266h-1.6v-0.7l1.6-0.1
			l0.1-1.8h0.8v1.8h2.8v0.8h-2.8v2.7c0,0.3,0,0.5,0.1,0.7c0,0.2,0.1,0.4,0.2,0.5c0.1,0.1,0.3,0.2,0.4,0.3c0.2,0.1,0.4,0.1,0.7,0.1
			c0.3,0,0.5,0,0.7-0.1s0.4-0.1,0.6-0.2l0.2,0.7c-0.3,0.1-0.5,0.2-0.8,0.2C506.6,271,506.3,271,506,271z"/>
	</g>
	<rect x="465" y="258.8" fill="none" stroke="#000000" stroke-miterlimit="10" width="65.7" height="19.8"/>
	<g>
		<path d="M477.7,251.1v-5.6h0.8l0.1,0.7h0c0.1-0.3,0.3-0.5,0.5-0.6c0.2-0.2,0.5-0.2,0.8-0.2c0.5,0,0.9,0.3,1.1,1
			c0.2-0.3,0.3-0.5,0.5-0.7c0.2-0.2,0.5-0.3,0.8-0.3c0.4,0,0.7,0.1,0.9,0.4c0.2,0.3,0.3,0.7,0.3,1.3v4h-1v-4c0-0.7-0.2-1-0.6-1
			c-0.2,0-0.4,0.1-0.5,0.2s-0.3,0.4-0.4,0.7v4.1h-0.9v-4c0-0.3,0-0.6-0.1-0.7c-0.1-0.2-0.2-0.2-0.4-0.2c-0.2,0-0.4,0.1-0.5,0.2
			c-0.1,0.1-0.3,0.4-0.4,0.7v4.1H477.7z"/>
		<path d="M486.8,251.3c-0.3,0-0.5,0-0.7-0.1c-0.2-0.1-0.4-0.2-0.6-0.3c-0.2-0.1-0.3-0.3-0.4-0.5s-0.2-0.4-0.2-0.7
			c0-0.3,0.1-0.6,0.2-0.8c0.2-0.2,0.4-0.4,0.7-0.6c0.3-0.2,0.8-0.3,1.3-0.4c0.5-0.1,1.1-0.2,1.9-0.3c0-0.2,0-0.4-0.1-0.5
			c-0.1-0.2-0.1-0.3-0.3-0.4c-0.1-0.1-0.3-0.2-0.5-0.3s-0.4-0.1-0.7-0.1c-0.4,0-0.7,0.1-1.1,0.2c-0.3,0.1-0.6,0.3-0.9,0.5l-0.4-0.6
			c0.1-0.1,0.3-0.2,0.5-0.3c0.2-0.1,0.4-0.2,0.6-0.3c0.2-0.1,0.4-0.1,0.7-0.2c0.2-0.1,0.5-0.1,0.7-0.1c0.8,0,1.3,0.2,1.7,0.6
			c0.4,0.4,0.6,1,0.6,1.7v3.5h-0.8l-0.1-0.8h0c-0.3,0.2-0.7,0.5-1,0.6C487.6,251.2,487.2,251.3,486.8,251.3z M487.1,250.5
			c0.3,0,0.6-0.1,1-0.2c0.3-0.1,0.6-0.3,1-0.6v-1.5c-0.6,0-1.1,0.1-1.5,0.2c-0.4,0.1-0.7,0.2-1,0.3c-0.2,0.1-0.4,0.3-0.5,0.4
			s-0.2,0.3-0.2,0.5c0,0.2,0,0.3,0.1,0.4c0.1,0.1,0.2,0.2,0.3,0.3c0.1,0.1,0.2,0.1,0.4,0.2C486.8,250.5,486.9,250.5,487.1,250.5z"/>
		<path d="M492,251.1v-5.6h0.8l0.1,1h0c0.3-0.3,0.6-0.6,1-0.8c0.3-0.2,0.7-0.3,1.2-0.3c0.7,0,1.2,0.2,1.5,0.6s0.5,0.9,0.5,1.7v3.5
			h-1v-3.4c0-0.5-0.1-0.9-0.3-1.2c-0.2-0.3-0.5-0.4-1-0.4c-0.2,0-0.3,0-0.5,0.1c-0.1,0-0.3,0.1-0.4,0.2c-0.1,0.1-0.3,0.2-0.4,0.3
			c-0.1,0.1-0.3,0.3-0.5,0.4v3.9H492z"/>
		<path d="M501.3,253.7c-0.8,0-1.5-0.1-1.9-0.4c-0.5-0.3-0.7-0.7-0.7-1.2c0-0.2,0.1-0.4,0.2-0.7c0.2-0.2,0.4-0.4,0.7-0.6v0
			c-0.2-0.1-0.3-0.2-0.4-0.3s-0.2-0.3-0.2-0.6c0-0.2,0.1-0.4,0.2-0.6s0.3-0.4,0.5-0.5v0c-0.2-0.1-0.4-0.3-0.5-0.6
			c-0.1-0.2-0.2-0.5-0.2-0.9c0-0.3,0.1-0.6,0.2-0.8s0.3-0.5,0.5-0.6c0.2-0.2,0.4-0.3,0.7-0.4s0.6-0.1,0.9-0.1c0.3,0,0.6,0,0.8,0.1
			h2.3v0.8H503c0.1,0.1,0.2,0.3,0.3,0.5c0.1,0.2,0.1,0.4,0.1,0.6c0,0.3-0.1,0.6-0.2,0.8c-0.1,0.2-0.3,0.4-0.5,0.6s-0.4,0.3-0.7,0.4
			s-0.6,0.1-0.9,0.1c-0.1,0-0.3,0-0.5-0.1c-0.2,0-0.3-0.1-0.5-0.2c-0.3,0.2-0.4,0.4-0.4,0.6c0,0.2,0.1,0.4,0.3,0.5s0.5,0.2,0.9,0.2
			h1.3c0.7,0,1.3,0.1,1.6,0.3c0.4,0.2,0.5,0.5,0.5,1c0,0.3-0.1,0.5-0.2,0.8c-0.1,0.2-0.4,0.4-0.6,0.6c-0.3,0.2-0.6,0.3-1,0.4
			C502.2,253.7,501.8,253.7,501.3,253.7z M501.4,253c0.3,0,0.6,0,0.9-0.1c0.3-0.1,0.5-0.1,0.7-0.2s0.3-0.2,0.4-0.4s0.1-0.3,0.1-0.4
			c0-0.3-0.1-0.5-0.3-0.5s-0.5-0.1-1-0.1h-1.1c-0.2,0-0.3,0-0.5,0c-0.1,0-0.3,0-0.4-0.1c-0.3,0.1-0.5,0.3-0.6,0.5
			c-0.1,0.2-0.2,0.3-0.2,0.5c0,0.3,0.2,0.5,0.5,0.7S500.8,253,501.4,253z M501.3,248.7c0.4,0,0.7-0.1,0.9-0.4c0.3-0.2,0.4-0.6,0.4-1
			c0-0.2,0-0.4-0.1-0.5c-0.1-0.2-0.2-0.3-0.3-0.4c-0.1-0.1-0.3-0.2-0.4-0.3c-0.2-0.1-0.3-0.1-0.5-0.1s-0.3,0-0.5,0.1
			c-0.2,0.1-0.3,0.2-0.4,0.3c-0.1,0.1-0.2,0.3-0.3,0.4c-0.1,0.2-0.1,0.3-0.1,0.5c0,0.4,0.1,0.7,0.4,1
			C500.6,248.6,500.9,248.7,501.3,248.7z"/>
		<path d="M509.6,251.3c-0.6,0-1.1-0.2-1.4-0.5c-0.3-0.3-0.5-0.8-0.5-1.5v-5.6h-2v-0.8h3v6.4c0,0.4,0.1,0.7,0.3,0.9s0.5,0.3,0.8,0.3
			c0.3,0,0.7-0.1,1.1-0.3l0.2,0.7c-0.3,0.1-0.5,0.2-0.7,0.2S509.9,251.3,509.6,251.3z"/>
		<path d="M515.6,251.3c-0.4,0-0.8-0.1-1.2-0.2c-0.4-0.1-0.7-0.3-1-0.6c-0.3-0.3-0.5-0.6-0.7-0.9c-0.2-0.4-0.2-0.8-0.2-1.3
			c0-0.5,0.1-0.9,0.2-1.2c0.2-0.4,0.4-0.7,0.6-0.9c0.3-0.3,0.6-0.5,0.9-0.6c0.3-0.1,0.7-0.2,1.1-0.2c0.4,0,0.8,0.1,1.1,0.2
			c0.3,0.1,0.6,0.3,0.8,0.5c0.2,0.2,0.4,0.5,0.5,0.8c0.1,0.3,0.2,0.7,0.2,1.1c0,0.1,0,0.2,0,0.3c0,0.1,0,0.2,0,0.3h-4.4
			c0.1,0.6,0.3,1.1,0.7,1.4c0.4,0.3,0.9,0.5,1.5,0.5c0.3,0,0.6,0,0.9-0.1c0.3-0.1,0.5-0.2,0.8-0.4l0.3,0.6c-0.3,0.2-0.6,0.3-1,0.5
			C516.5,251.2,516.1,251.3,515.6,251.3z M515.5,246.1c-0.2,0-0.5,0-0.7,0.1c-0.2,0.1-0.4,0.2-0.6,0.3c-0.2,0.1-0.3,0.3-0.4,0.5
			c-0.1,0.2-0.2,0.5-0.2,0.7h3.6c0-0.6-0.2-1-0.5-1.3C516.4,246.3,516,246.1,515.5,246.1z"/>
	</g>
</g>
<polygon fill="#DFD0BA" stroke="#000000" stroke-miterlimit="10" points="151.6,263.1 188.8,240.3 226,263.1 188.8,286 "/>
<g>
	<path d="M175.4,253.9c0.6,0,1.2-0.1,1.7-0.2c0.6-0.1,0.9-0.2,1.1-0.3s0.3-0.1,0.5-0.1c0.2,0,0.4,0.1,0.8,0.3
		c0.3,0.2,0.5,0.4,0.5,0.5s0,0.2-0.1,0.4c-0.1,0.1-0.1,0.3-0.2,0.4c0,0.1,0,0.3,0,0.6s0,0.9,0.1,1.9l0.1,2.6c0,0.3-0.1,0.6-0.2,1
		c-0.1,0.4-0.2,0.6-0.3,0.7c-0.1,0.1-0.2,0.2-0.2,0.2c0,0-0.1-0.1-0.1-0.2c-0.1-0.1-0.1-0.4-0.3-0.9c-0.1-0.3-0.2-0.5-0.3-0.6
		c-0.1-0.1-0.3-0.2-0.5-0.2s-0.6,0-1.1,0.1c-0.5,0.1-0.9,0.1-1,0.1s-0.3,0-0.4,0c0,0.3-0.1,0.6-0.1,0.8c-0.1,0.2-0.1,0.3-0.2,0.3
		c-0.1,0-0.2-0.2-0.2-0.5c-0.1-0.3-0.1-0.6-0.1-0.7c0-0.2,0-0.3,0.1-0.5c0.1-0.2,0.2-1,0.2-2.4c0-0.8,0-1.5-0.1-2
		c0-0.6-0.1-0.9-0.2-1s-0.1-0.2-0.1-0.2c0-0.1,0.1-0.1,0.2-0.1C175.1,253.7,175.3,253.8,175.4,253.9z M175.4,259.8
		c0.8-0.1,1.3-0.1,1.7-0.2c0.4-0.1,0.6-0.1,0.8-0.1s0.4,0.1,0.6,0.3s0.3,0.3,0.3,0.3s0.1,0,0.1-0.1s0.1-0.3,0.1-0.6
		c0-0.3,0-0.8,0-1.3s0-1.2-0.1-2c0-0.8-0.1-1.3-0.1-1.5c0-0.2-0.1-0.3-0.2-0.4c-0.1-0.1-0.3-0.1-0.5-0.1s-0.5,0-0.8,0.1
		c-0.9,0.2-1.6,0.3-2,0.3c0,0.5,0,1.1,0,1.7c0.7-0.1,1.2-0.2,1.6-0.3c0.2,0,0.3-0.1,0.5-0.1s0.3,0,0.4,0.1c0.1,0.1,0.1,0.1,0.1,0.2
		c0,0.1-0.3,0.2-0.8,0.3c-0.5,0.1-0.9,0.1-1.2,0.1c-0.3,0-0.5,0-0.7,0c0,0.5,0,1,0,1.5c0.4,0,1-0.1,1.8-0.3c0.2-0.1,0.5-0.1,0.6-0.1
		c0.2,0,0.3,0,0.3,0.1c0.1,0.1,0.1,0.1,0.1,0.1c0,0.1-0.2,0.2-0.7,0.3c-0.5,0.1-0.9,0.1-1.2,0.1s-0.6,0-0.9-0.1
		C175.5,258.6,175.4,259.2,175.4,259.8z"/>
	<path d="M187,255.2c0.5-0.1,0.8-0.2,0.9-0.2c0.1,0,0.2,0,0.3,0.1c0.1,0.1,0.1,0.1,0.1,0.2c0,0.2-0.5,0.4-1.4,0.6
		c-0.1,2.1-0.1,3.4-0.1,4.1s0,1,0,1.2c0,0.2-0.1,0.4-0.1,0.5c-0.1,0.1-0.1,0.2-0.2,0.2s-0.2-0.1-0.2-0.3c-0.1-0.2-0.1-0.4-0.1-0.6
		c0-0.2,0-0.4,0.1-0.7c0.1-0.5,0.2-1.6,0.3-3.5c-0.4,1-0.9,1.8-1.5,2.3c-0.6,0.5-1,0.8-1.2,0.8c0,0-0.1,0-0.1-0.1s0-0.1,0.1-0.2
		c0.4-0.3,0.8-0.8,1.2-1.5c0.4-0.7,0.8-1.4,1.1-2.2c-0.6,0.1-1,0.2-1.2,0.2c-0.2,0-0.3,0-0.5-0.1c-0.2-0.1-0.2-0.1-0.2-0.2
		s0.1-0.1,0.4-0.1c0.1,0,0.4-0.1,0.8-0.2s0.7-0.2,1-0.3c0-0.7,0-1.2-0.1-1.7c0-0.5-0.1-0.7-0.2-0.8c-0.1-0.1-0.1-0.2-0.1-0.3
		s0.1-0.1,0.2-0.1c0.1,0,0.3,0.1,0.6,0.2c0.3,0.1,0.4,0.3,0.4,0.4c0,0.1,0,0.3-0.1,0.5C187.2,253.5,187.1,254.1,187,255.2z
		 M187.1,257c0.2,0,0.4,0.1,0.6,0.2c0.2,0.1,0.3,0.3,0.3,0.5s-0.1,0.4-0.2,0.4c-0.1,0-0.3-0.1-0.5-0.4
		C187.1,257.3,187,257.1,187.1,257C187,257,187,257,187.1,257z M190.3,256.4c-0.5,0.1-0.9,0.2-1.1,0.2c-0.3,0.1-0.5,0.1-0.6,0.1
		s-0.2,0-0.4-0.1s-0.2-0.2-0.2-0.2c0-0.1,0.2-0.1,0.5-0.1c0.3,0,0.8-0.1,1.5-0.2c0.7-0.1,1.3-0.2,1.9-0.4s1-0.2,1.1-0.2
		s0.4,0,0.6,0.1s0.3,0.2,0.3,0.3s-0.1,0.1-0.2,0.2s-0.3,0.1-0.5,0.1l-0.5,0c-0.4,0-1.1,0.1-1.9,0.2c0.1,0.1,0.2,0.2,0.3,0.2
		c0.1,0.1,0.1,0.2,0.1,0.3l0,0.5c0,0.2,0,0.6,0,1c0,0.5,0,0.9,0.1,1.1c0,0.3,0,0.5,0,0.8c0,0.6-0.1,1-0.3,1.3
		c-0.2,0.3-0.3,0.4-0.4,0.4c-0.1,0-0.2-0.1-0.3-0.2c-0.3-0.4-0.5-0.7-0.8-0.9c-0.1-0.1-0.2-0.2-0.2-0.2c0,0,0-0.1,0.1-0.1
		c0.1,0,0.2,0,0.4,0c0.2,0,0.3,0,0.4,0c0.1,0,0.2,0,0.2-0.1c0-0.1,0.1-0.2,0.1-0.4c0-0.2,0.1-0.5,0.1-1c0-0.4,0-0.9,0-1.5
		s-0.1-0.9-0.1-1C190.4,256.6,190.4,256.5,190.3,256.4z M189.3,258.4c0,0.4-0.1,0.7-0.4,1.1c-0.2,0.4-0.4,0.5-0.6,0.5
		c-0.1,0-0.1-0.1-0.2-0.2s-0.1-0.3-0.1-0.4c0-0.1,0.1-0.2,0.3-0.5c0.2-0.2,0.3-0.5,0.4-0.7c0.1-0.3,0.2-0.4,0.2-0.4s0.1,0.1,0.2,0.2
		C189.2,258.1,189.3,258.3,189.3,258.4z M192,253.5c0.1,0,0.3,0,0.4,0.1s0.1,0.1,0.1,0.2c0,0.2-0.3,0.3-1,0.5
		c-0.6,0.2-1.2,0.3-1.6,0.3c-0.2,0-0.4,0-0.6-0.1c-0.2-0.1-0.3-0.1-0.3-0.2c0-0.1,0.2-0.2,0.5-0.2c0.1,0,0.3,0,0.6-0.1
		c0.3-0.1,0.6-0.2,1-0.3S191.8,253.5,192,253.5z M193.8,259.3c0,0.1,0,0.3-0.1,0.4s-0.1,0.2-0.2,0.2s-0.3-0.1-0.4-0.3
		s-0.4-0.5-0.7-0.8c-0.3-0.4-0.4-0.6-0.4-0.6c0,0,0.1-0.1,0.2-0.1c0.1,0,0.3,0,0.6,0.1s0.6,0.3,0.8,0.5
		C193.7,258.8,193.8,259,193.8,259.3z"/>
	<path d="M201,259.9c1.3,0.6,2.9,1,4.9,1.1c0.2,0,0.3,0,0.3,0.1c0,0.1-0.1,0.1-0.2,0.2c-0.1,0.1-0.5,0.2-1.1,0.3
		c-0.6,0.1-1,0.2-1.2,0.2c-0.2,0-0.3,0-0.4-0.1c-0.1,0-0.5-0.2-1.1-0.6c-0.6-0.3-1.2-0.7-1.8-1s-1.1-0.7-1.6-1.1
		c-0.2,0.4-0.6,0.8-0.9,1.2s-0.8,0.6-1.2,0.8s-0.7,0.3-0.8,0.3c-0.1,0-0.1,0-0.1,0c0-0.1,0.1-0.1,0.3-0.3c0.4-0.3,0.8-0.5,1-0.7
		c0.3-0.2,0.5-0.5,0.8-0.8s0.4-0.6,0.5-0.8c0.1-0.2,0.2-0.4,0.2-0.6c0-0.2,0-0.3,0.1-0.3c0.1,0,0.2,0.1,0.4,0.2
		c0.2,0.1,0.3,0.2,0.3,0.3c0,0.1,0,0.1-0.1,0.2s-0.1,0.2-0.2,0.4c0.3,0.2,0.8,0.5,1.7,1c0-0.6,0-1,0-1.3c0-0.8-0.1-1.2-0.2-1.3
		c-0.4,0.1-1,0.2-1.8,0.3c-0.8,0.2-1.2,0.2-1.4,0.2s-0.4,0-0.5-0.1s-0.2-0.2-0.2-0.2c0-0.1,0.3-0.1,0.8-0.1c0.2,0,0.7-0.1,1.5-0.2
		c0.8-0.1,1.6-0.3,2.4-0.4s1.3-0.3,1.4-0.3c0.3-0.1,0.6-0.1,0.8-0.1c0.2,0,0.4,0,0.6,0.1c0.2,0.1,0.2,0.1,0.2,0.2s-0.1,0.1-0.2,0.2
		c-0.1,0.1-0.3,0.1-0.4,0.1c-0.2,0-0.5,0-1.1,0.1s-1,0.1-1.4,0.2c0.2,0.1,0.2,0.2,0.2,0.3c0,0.1,0,0.2-0.1,0.3
		c0,0.1-0.1,0.4-0.1,0.7c0.2,0,0.6-0.1,1.1-0.3c0.2-0.1,0.4-0.1,0.5-0.1s0.2,0,0.3,0.1s0.1,0.1,0.1,0.2c0,0.1,0,0.1-0.1,0.2
		c-0.1,0.1-0.3,0.1-0.6,0.2s-0.6,0.1-0.7,0.1c-0.2,0-0.4,0-0.6-0.1L201,259.9z M199.2,253.1c0.5-0.1,0.9-0.1,1.4-0.2s0.8-0.2,1-0.2
		c0.2-0.1,0.3-0.1,0.4-0.1c0.1,0,0.3,0.1,0.6,0.2c0.3,0.2,0.5,0.3,0.5,0.4c0,0.1-0.1,0.2-0.2,0.3c-0.2,0.2-0.3,0.4-0.3,0.7
		c-0.1,0.3-0.2,0.6-0.3,0.9c-0.1,0.3-0.2,0.5-0.3,0.6c-0.1,0.1-0.2,0.2-0.2,0.2s-0.1-0.1-0.2-0.2c0-0.1-0.1-0.2-0.1-0.2
		c-0.1,0-0.2,0-0.4,0.1c-0.5,0.1-0.9,0.2-1.2,0.2c0,0.2-0.1,0.2-0.2,0.2c-0.1,0-0.1,0-0.2-0.1c0-0.1-0.1-0.3-0.2-0.8
		c-0.1-0.4-0.2-0.8-0.3-1.1c-0.1-0.3-0.2-0.5-0.3-0.6c-0.1-0.1-0.2-0.2-0.2-0.3c0-0.1,0.1-0.1,0.2-0.1
		C198.9,253,199,253.1,199.2,253.1z M199.9,255.6c0.7-0.2,1.1-0.3,1.2-0.3c0.1,0,0.2,0,0.3,0c0.1,0,0.1,0,0.1,0s0.1,0,0.1-0.1
		s0.1-0.3,0.2-0.7c0.1-0.4,0.1-0.7,0.1-0.9c0-0.2,0-0.4-0.1-0.4c-0.1,0-0.1-0.1-0.2-0.1c-0.1,0-0.4,0-0.9,0.1
		c-0.6,0.1-0.9,0.1-1.1,0.2c0,0.1,0.1,0.4,0.2,0.9c0.8-0.2,1.2-0.3,1.3-0.3c0.2,0,0.4,0.1,0.4,0.2c0,0.1,0,0.1-0.1,0.1
		c0,0-0.2,0.1-0.5,0.1c-0.3,0.1-0.5,0.1-0.6,0.1s-0.3,0-0.5,0C199.8,254.8,199.9,255.1,199.9,255.6z"/>
	<path d="M177.3,268c-0.7,0.1-1.6,0.2-2.6,0.4c-0.2,0-0.3,0-0.4,0c-0.1,0-0.3-0.1-0.5-0.2c-0.2-0.1-0.2-0.2-0.2-0.2s0-0.1,0.1-0.1
		c0,0,0.1,0,0.2,0c0.5,0,1.3-0.1,2.5-0.2s2.1-0.3,2.9-0.5c0.3-0.1,0.6-0.1,0.9-0.1c0.4,0,0.7,0.1,0.9,0.2c0.2,0.1,0.2,0.2,0.2,0.4
		c0,0.1-0.3,0.2-0.8,0.2l-0.7,0c-0.5,0-1.3,0.1-2.2,0.2c0.4,0.3,0.6,0.5,0.6,0.6c0,0.1,0,0.1-0.1,0.2c-0.2,0.1-0.5,0.3-0.7,0.6
		c0,0.3,0,0.6,0,1c0,0.4,0,0.7,0,1s0,0.6-0.1,0.8c-0.1,0.2-0.2,0.3-0.2,0.3s-0.2-0.1-0.2-0.2c-0.1-0.2-0.1-0.3-0.1-0.4
		c0-0.1,0-0.2,0-0.2c0.1-0.5,0.2-1.1,0.2-1.7c-0.8,0.9-1.6,1.5-2.4,2s-1.3,0.7-1.7,0.7c-0.1,0-0.1,0-0.1-0.1c0,0,0.1-0.1,0.2-0.2
		c0.6-0.3,1.3-0.7,2-1.3c0.7-0.6,1.4-1.2,1.9-1.9c0-0.1-0.1-0.2-0.2-0.3c-0.1-0.1-0.1-0.1-0.1-0.2c0,0,0-0.1,0.2-0.1s0.2,0,0.4,0.1
		C177.3,268.4,177.4,268.2,177.3,268z M175.2,272.9c0.5,0,1.1-0.1,1.8-0.2c0.7-0.1,1.1-0.2,1.4-0.3c0.2-0.1,0.4-0.1,0.5-0.1
		c0.1,0,0.4,0.1,0.7,0.3c0.4,0.2,0.5,0.4,0.5,0.5c0,0.1-0.1,0.2-0.3,0.4s-0.3,0.4-0.4,0.6c-0.1,0.2-0.2,0.4-0.2,0.5
		c0,0.1,0,0.1,0.1,0.2c0.1,0.1,0.2,0.2,0.2,0.3s0,0.2-0.1,0.2c-0.1,0-0.2,0.1-0.3,0.1l-3.3,0.2c0,0.1,0,0.1,0,0.2
		c0,0.2,0,0.3-0.1,0.3c-0.1,0-0.2-0.1-0.2-0.2c-0.1-0.1-0.2-0.4-0.2-0.9c-0.1-0.5-0.2-0.8-0.2-1.1c-0.1-0.3-0.2-0.5-0.4-0.7
		c-0.1,0-0.1-0.1-0.1-0.1c0-0.1,0.1-0.1,0.2-0.1C174.9,272.8,175,272.9,175.2,272.9z M175.8,275c0.9-0.1,1.5-0.2,1.9-0.2
		c0.4-0.1,0.6-0.1,0.7-0.1s0.2-0.1,0.2-0.2s0.1-0.3,0.1-0.6s0.1-0.6,0.1-0.7s0-0.2-0.1-0.2c-0.1,0-0.1,0-0.3,0c-0.1,0-0.4,0-1,0.1
		s-1.2,0.1-2,0.2C175.6,273.5,175.7,274.1,175.8,275z M178.4,270c0.1,0,0.6,0.1,1.3,0.2c0.7,0.1,1.2,0.2,1.4,0.3
		c0.2,0.1,0.4,0.3,0.6,0.5c0.1,0.2,0.2,0.4,0.2,0.5c0,0.2-0.1,0.2-0.2,0.2c-0.1,0-0.3-0.1-0.5-0.2l-1.5-0.8
		c-0.8-0.4-1.2-0.6-1.3-0.7s-0.1-0.1-0.1-0.1C178.2,270,178.3,270,178.4,270z"/>
	<path d="M189.1,269.6c0.7,0.9,1.4,1.6,2.1,2.2s1.5,1,2.3,1.3c0.8,0.3,1.2,0.5,1.2,0.5c0,0,0,0.1-0.1,0.1c-0.1,0-0.3,0-0.7,0.1
		c-0.4,0-0.7,0-1,0c-0.2,0-0.4,0-0.6-0.1s-0.3-0.1-0.5-0.3c-0.2-0.2-0.4-0.5-0.8-0.9c-0.4-0.5-0.7-0.9-1-1.3
		c-0.3-0.4-0.6-0.8-0.8-1.1l0,3.2c0.2,0,0.3-0.1,0.4-0.1c0.1,0,0.3,0,0.5,0c0.3,0,0.6,0,0.7,0.1s0.2,0.2,0.2,0.2
		c0,0.2-0.3,0.3-0.8,0.3l-0.9,0.1c0,0.7,0,1,0,1.1c0,0.1,0,0.3,0,0.5c0,0.2,0,0.4-0.1,0.6c-0.1,0.2-0.1,0.2-0.2,0.2
		s-0.2-0.1-0.3-0.3c-0.1-0.2-0.1-0.4-0.1-0.6c0-0.2,0-0.4,0.1-0.6s0.1-0.5,0.1-0.9c-0.3,0-0.5,0.1-0.8,0.1c-0.2,0-0.4,0-0.6-0.1
		c-0.2-0.1-0.3-0.1-0.3-0.2s0.1-0.1,0.3-0.1c0.2,0,0.7-0.1,1.4-0.2c0.1-1.3,0.1-2.4,0.1-3.1c-0.4,0.8-0.9,1.6-1.5,2.3
		s-1.2,1.2-1.7,1.5s-0.9,0.5-1.1,0.5c0,0-0.1,0-0.1-0.1s0-0.1,0.1-0.1c0.7-0.5,1.5-1.2,2.2-2.1c0.8-0.9,1.4-1.9,1.9-2.9
		c-0.2,0-0.3,0-0.4,0.1c-0.5,0.1-0.9,0.1-1.1,0.1c-0.3,0-0.5,0-0.7-0.1c-0.2-0.1-0.3-0.1-0.3-0.2c0-0.1,0.1-0.1,0.4-0.1
		c0.3,0,1-0.1,2.3-0.4c0-0.6,0-1.1-0.1-1.5c0-0.4-0.1-0.6-0.2-0.8c-0.1-0.1-0.1-0.2-0.1-0.2c0-0.1,0.1-0.2,0.2-0.2s0.4,0.1,0.6,0.2
		c0.3,0.1,0.4,0.3,0.4,0.4c0,0.1,0,0.1-0.1,0.2c0,0.1-0.1,0.3-0.2,0.6c-0.1,0.4-0.1,0.7-0.2,1.1c0.4-0.1,0.8-0.2,1.3-0.3
		c0.4-0.1,0.8-0.2,1-0.2c0.2,0,0.4,0,0.5,0.1c0.2,0.1,0.2,0.1,0.2,0.2c0,0.1-0.1,0.2-0.2,0.2c-0.1,0.1-0.4,0.1-0.7,0.1
		c-0.4,0-1.1,0.1-2.1,0.3C189.1,269.3,189.1,269.4,189.1,269.6z"/>
	<path d="M198.6,269c0.5-0.2,0.8-0.2,1-0.2s0.2,0,0.3,0.1c0.1,0,0.1,0.1,0.1,0.2c0,0.2-0.5,0.4-1.4,0.6c0,0.5,0,0.9,0,1.3
		c0.6,0,0.9,0.1,1.1,0.2c0.1,0.2,0.2,0.3,0.2,0.4s0,0.2-0.1,0.3c0,0.1-0.1,0.1-0.2,0.1c-0.2,0-0.5-0.3-1-0.8c0,0.8,0,1.4,0,1.9
		c0,0.5,0,0.9,0,1.1c0,1-0.1,1.5-0.3,1.5c-0.1,0-0.2-0.1-0.3-0.3c-0.1-0.2-0.2-0.4-0.2-0.6c0-0.2,0.1-0.4,0.2-0.7
		c0.1-0.3,0.2-1.4,0.2-3.2c-0.2,0.6-0.5,1.2-0.8,1.6c-0.3,0.5-0.7,0.8-1,1.1c-0.3,0.2-0.6,0.4-0.7,0.4c0,0-0.1,0-0.1-0.1
		c0,0,0.1-0.1,0.2-0.2c0.4-0.4,0.8-0.9,1.2-1.6c0.5-0.7,0.8-1.4,1-2.1c-0.6,0.2-1,0.2-1.4,0.2s-0.5,0-0.7-0.1
		c-0.1-0.1-0.2-0.1-0.2-0.2s0.1-0.1,0.2-0.1c0.2,0,0.5-0.1,1-0.2c0.5-0.1,0.9-0.2,1.1-0.3c0-0.7,0-1.3-0.1-1.8s-0.1-0.8-0.2-0.9
		s-0.1-0.2-0.1-0.3c0-0.1,0.1-0.1,0.2-0.1c0.1,0,0.3,0.1,0.6,0.2c0.3,0.1,0.4,0.3,0.4,0.4c0,0,0,0.1,0,0.2c-0.1,0.2-0.1,0.5-0.2,0.8
		C198.7,267.9,198.6,268.3,198.6,269z M201.1,268.8c0.3,0,0.5-0.1,0.8-0.2c0.2-0.1,0.4-0.2,0.5-0.4c0.1-0.1,0.2-0.2,0.3-0.2
		s0.3,0.1,0.6,0.2s0.4,0.3,0.4,0.4s-0.1,0.2-0.3,0.4c-0.2,0.2-0.3,0.5-0.4,1.1s-0.1,1.1-0.1,1.7c0,0.6,0.1,1,0.3,1.4
		s0.6,0.5,1.1,0.5c0.4,0,0.7-0.1,0.8-0.3c0.1-0.2,0.2-0.6,0.3-1.1c0-0.2,0.1-0.3,0.1-0.3s0.1,0.1,0.1,0.3c0,0.2,0.1,0.4,0.2,0.8
		s0.2,0.5,0.2,0.6c0,0.1,0.1,0.1,0.1,0.2c0,0.1-0.2,0.3-0.5,0.4c-0.3,0.2-0.7,0.2-1.1,0.2c-0.7,0-1.2-0.2-1.6-0.6s-0.5-1-0.5-1.9
		c0-0.2,0-0.7,0.1-1.4c0.1-0.7,0.1-1.1,0.1-1.3c0-0.1,0-0.2,0-0.3c0-0.1,0-0.1-0.1-0.1s-0.2,0-0.4,0.1c-0.2,0.1-0.5,0.2-0.7,0.2
		c0,0.7,0,1.5-0.1,2.3s-0.2,1.4-0.5,1.8c-0.2,0.5-0.5,0.8-0.9,1s-0.6,0.3-0.7,0.3c-0.1,0-0.1,0-0.1-0.1s0.1-0.1,0.2-0.2
		c0.5-0.3,0.8-0.8,1-1.4c0.2-0.6,0.4-1.5,0.4-2.7c0-0.6-0.1-1-0.2-1.2c-0.1-0.1-0.2-0.2-0.2-0.3c0-0.1,0.1-0.1,0.2-0.1
		C200.6,268.6,200.8,268.7,201.1,268.8z"/>
</g>
<line fill="#FFFFFF" stroke="#000000" stroke-miterlimit="10" x1="188.8" y1="240.3" x2="188.8" y2="198.7"/>
<line fill="none" stroke="#000000" stroke-miterlimit="10" x1="151.6" y1="263.1" x2="140.4" y2="263.1"/>
<line fill="none" stroke="#000000" stroke-miterlimit="10" x1="226" y1="263.1" x2="254.6" y2="263.1"/>
<line fill="none" stroke="#000000" stroke-miterlimit="10" x1="340.7" y1="263.1" x2="454.9" y2="263.1"/>
<line fill="none" stroke="#000000" stroke-miterlimit="10" x1="197.5" y1="86.7" x2="197.5" y2="46.7"/>
<line fill="none" stroke="#000000" stroke-miterlimit="10" x1="397.8" y1="86.7" x2="397.8" y2="46.7"/>
<line fill="none" stroke="#000000" stroke-miterlimit="10" x1="397.8" y1="198.7" x2="397.8" y2="263.1"/>
<polygon points="181.3,226 188.8,213 196.3,226 "/>
<polygon points="190,83.9 197.5,70.9 205,83.9 "/>
<polygon points="89.9,344.8 97.4,331.9 104.8,344.8 "/>
<polygon points="490.4,331.9 497.9,344.8 505.4,331.9 "/>
<polygon points="390.3,213 397.8,226 405.2,213 "/>
<polygon points="390.3,70.9 397.8,83.9 405.2,70.9 "/>
<polygon points="417.7,255.7 430.6,263.1 417.7,270.6 "/>
<polygon points="230.2,255.7 243.1,263.1 230.2,270.6 "/>
<line fill="none" stroke="#000000" stroke-miterlimit="10" x1="97.4" y1="326.3" x2="97.4" y2="375"/>
<line fill="none" stroke="#000000" stroke-miterlimit="10" x1="497.9" y1="326.3" x2="497.9" y2="375"/>
<g>
	<path d="M205.8,218.8c1.3,0.6,2.9,1,4.9,1.1c0.2,0,0.3,0,0.3,0.1c0,0.1-0.1,0.1-0.2,0.2c-0.1,0.1-0.5,0.2-1.1,0.3
		c-0.6,0.1-1,0.2-1.2,0.2c-0.2,0-0.3,0-0.4-0.1c-0.1,0-0.5-0.2-1.1-0.6c-0.6-0.3-1.2-0.7-1.8-1s-1.1-0.7-1.6-1.1
		c-0.2,0.4-0.6,0.8-0.9,1.2s-0.8,0.6-1.2,0.8s-0.7,0.3-0.8,0.3c-0.1,0-0.1,0-0.1,0c0-0.1,0.1-0.1,0.3-0.3c0.4-0.3,0.8-0.5,1-0.7
		c0.3-0.2,0.5-0.5,0.8-0.8s0.4-0.6,0.5-0.8c0.1-0.2,0.2-0.4,0.2-0.6c0-0.2,0-0.3,0.1-0.3c0.1,0,0.2,0.1,0.4,0.2
		c0.2,0.1,0.3,0.2,0.3,0.3c0,0.1,0,0.1-0.1,0.2s-0.1,0.2-0.2,0.4c0.3,0.2,0.8,0.5,1.7,1c0-0.6,0-1,0-1.3c0-0.8-0.1-1.2-0.2-1.3
		c-0.4,0.1-1,0.2-1.8,0.3c-0.8,0.2-1.2,0.2-1.4,0.2s-0.4,0-0.5-0.1s-0.2-0.2-0.2-0.2c0-0.1,0.3-0.1,0.8-0.1c0.2,0,0.7-0.1,1.5-0.2
		c0.8-0.1,1.6-0.3,2.4-0.4s1.3-0.3,1.4-0.3c0.3-0.1,0.6-0.1,0.8-0.1c0.2,0,0.4,0,0.6,0.1c0.2,0.1,0.2,0.1,0.2,0.2s-0.1,0.1-0.2,0.2
		c-0.1,0.1-0.3,0.1-0.4,0.1c-0.2,0-0.5,0-1.1,0.1s-1,0.1-1.4,0.2c0.2,0.1,0.2,0.2,0.2,0.3c0,0.1,0,0.2-0.1,0.3
		c0,0.1-0.1,0.4-0.1,0.7c0.2,0,0.6-0.1,1.1-0.3c0.2-0.1,0.4-0.1,0.5-0.1s0.2,0,0.3,0.1s0.1,0.1,0.1,0.2c0,0.1,0,0.1-0.1,0.2
		c-0.1,0.1-0.3,0.1-0.6,0.2s-0.6,0.1-0.7,0.1c-0.2,0-0.4,0-0.6-0.1L205.8,218.8z M203.9,212c0.5-0.1,0.9-0.1,1.4-0.2s0.8-0.2,1-0.2
		c0.2-0.1,0.3-0.1,0.4-0.1c0.1,0,0.3,0.1,0.6,0.2c0.3,0.2,0.5,0.3,0.5,0.4c0,0.1-0.1,0.2-0.2,0.3c-0.2,0.2-0.3,0.4-0.3,0.7
		c-0.1,0.3-0.2,0.6-0.3,0.9c-0.1,0.3-0.2,0.5-0.3,0.6c-0.1,0.1-0.2,0.2-0.2,0.2s-0.1-0.1-0.2-0.2c0-0.1-0.1-0.2-0.1-0.2
		c-0.1,0-0.2,0-0.4,0.1c-0.5,0.1-0.9,0.2-1.2,0.2c0,0.2-0.1,0.2-0.2,0.2c-0.1,0-0.1,0-0.2-0.1c0-0.1-0.1-0.3-0.2-0.8
		c-0.1-0.4-0.2-0.8-0.3-1.1c-0.1-0.3-0.2-0.5-0.3-0.6c-0.1-0.1-0.2-0.2-0.2-0.3c0-0.1,0.1-0.1,0.2-0.1
		C203.6,212,203.7,212,203.9,212z M204.7,214.5c0.7-0.2,1.1-0.3,1.2-0.3c0.1,0,0.2,0,0.3,0c0.1,0,0.1,0,0.1,0s0.1,0,0.1-0.1
		s0.1-0.3,0.2-0.7c0.1-0.4,0.1-0.7,0.1-0.9c0-0.2,0-0.4-0.1-0.4c-0.1,0-0.1-0.1-0.2-0.1c-0.1,0-0.4,0-0.9,0.1
		c-0.6,0.1-0.9,0.1-1.1,0.2c0,0.1,0.1,0.4,0.2,0.9c0.8-0.2,1.2-0.3,1.3-0.3c0.2,0,0.4,0.1,0.4,0.2c0,0.1,0,0.1-0.1,0.1
		c0,0-0.2,0.1-0.5,0.1c-0.3,0.1-0.5,0.1-0.6,0.1s-0.3,0-0.5,0C204.5,213.7,204.6,214.1,204.7,214.5z"/>
</g>
<g>
	<path d="M240.7,248.2c-0.7,0.1-1.6,0.2-2.6,0.4c-0.2,0-0.3,0-0.4,0c-0.1,0-0.3-0.1-0.5-0.2c-0.2-0.1-0.2-0.2-0.2-0.2s0-0.1,0.1-0.1
		c0,0,0.1,0,0.2,0c0.5,0,1.3-0.1,2.5-0.2s2.1-0.3,2.9-0.5c0.3-0.1,0.6-0.1,0.9-0.1c0.4,0,0.7,0.1,0.9,0.2c0.2,0.1,0.2,0.2,0.2,0.4
		c0,0.1-0.3,0.2-0.8,0.2l-0.7,0c-0.5,0-1.3,0.1-2.2,0.2c0.4,0.3,0.6,0.5,0.6,0.6c0,0.1,0,0.1-0.1,0.2c-0.2,0.1-0.5,0.3-0.7,0.6
		c0,0.3,0,0.6,0,1c0,0.4,0,0.7,0,1s0,0.6-0.1,0.8c-0.1,0.2-0.2,0.3-0.2,0.3s-0.2-0.1-0.2-0.2c-0.1-0.2-0.1-0.3-0.1-0.4
		c0-0.1,0-0.2,0-0.2c0.1-0.5,0.2-1.1,0.2-1.7c-0.8,0.9-1.6,1.5-2.4,2s-1.3,0.7-1.7,0.7c-0.1,0-0.1,0-0.1-0.1c0,0,0.1-0.1,0.2-0.2
		c0.6-0.3,1.3-0.7,2-1.3c0.7-0.6,1.4-1.2,1.9-1.9c0-0.1-0.1-0.2-0.2-0.3c-0.1-0.1-0.1-0.1-0.1-0.2c0,0,0-0.1,0.2-0.1s0.2,0,0.4,0.1
		C240.6,248.6,240.7,248.4,240.7,248.2z M238.5,253.1c0.5,0,1.1-0.1,1.8-0.2c0.7-0.1,1.1-0.2,1.4-0.3c0.2-0.1,0.4-0.1,0.5-0.1
		c0.1,0,0.4,0.1,0.7,0.3c0.4,0.2,0.5,0.4,0.5,0.5c0,0.1-0.1,0.2-0.3,0.4s-0.3,0.4-0.4,0.6c-0.1,0.2-0.2,0.4-0.2,0.5
		c0,0.1,0,0.1,0.1,0.2c0.1,0.1,0.2,0.2,0.2,0.3s0,0.2-0.1,0.2c-0.1,0-0.2,0.1-0.3,0.1l-3.3,0.2c0,0.1,0,0.1,0,0.2
		c0,0.2,0,0.3-0.1,0.3c-0.1,0-0.2-0.1-0.2-0.2c-0.1-0.1-0.2-0.4-0.2-0.9c-0.1-0.5-0.2-0.8-0.2-1.1c-0.1-0.3-0.2-0.5-0.4-0.7
		c-0.1,0-0.1-0.1-0.1-0.1c0-0.1,0.1-0.1,0.2-0.1C238.2,253.1,238.4,253.1,238.5,253.1z M239.1,255.2c0.9-0.1,1.5-0.2,1.9-0.2
		c0.4-0.1,0.6-0.1,0.7-0.1s0.2-0.1,0.2-0.2s0.1-0.3,0.1-0.6s0.1-0.6,0.1-0.7s0-0.2-0.1-0.2c-0.1,0-0.1,0-0.3,0c-0.1,0-0.4,0-1,0.1
		s-1.2,0.1-2,0.2C239,253.7,239.1,254.3,239.1,255.2z M241.7,250.2c0.1,0,0.6,0.1,1.3,0.2c0.7,0.1,1.2,0.2,1.4,0.3
		c0.2,0.1,0.4,0.3,0.6,0.5c0.1,0.2,0.2,0.4,0.2,0.5c0,0.2-0.1,0.2-0.2,0.2c-0.1,0-0.3-0.1-0.5-0.2l-1.5-0.8
		c-0.8-0.4-1.2-0.6-1.3-0.7s-0.1-0.1-0.1-0.1C241.6,250.2,241.6,250.2,241.7,250.2z"/>
</g>
</svg>
