<?xml version="1.0" encoding="utf-8"?>
<!-- Generator: Adobe Illustrator 18.0.0, SVG Export Plug-In . SVG Version: 6.00 Build 0)  -->
<!DOCTYPE svg PUBLIC "-//W3C//DTD SVG 1.1//EN" "http://www.w3.org/Graphics/SVG/1.1/DTD/svg11.dtd">
<svg version="1.1" id="图层_1" xmlns="http://www.w3.org/2000/svg" xmlns:xlink="http://www.w3.org/1999/xlink" x="0px" y="0px"
	 viewBox="0 0 563.6 356" enable-background="new 0 0 563.6 356" xml:space="preserve">
<rect x="21.6" y="22.4" fill="#FFFFFF" stroke="#000000" stroke-miterlimit="10" width="519" height="313.5"/>
<path fill="#FFFFFF" stroke="#000000" stroke-miterlimit="10" d="M330.2,266H206.8c-6.6,0-12-5.4-12-12V93.2c0-6.6,5.4-12,12-12
	h123.3c6.6,0,12,5.4,12,12V254C342.2,260.6,336.8,266,330.2,266z"/>
<rect x="216.1" y="-60.1" fill="#FFFFFF" stroke="#000000" stroke-miterlimit="10" width="0" height="2"/>
<ellipse fill="#FFFFFF" stroke="#000000" stroke-miterlimit="10" cx="266" cy="45.8" rx="19.4" ry="10.1"/>
<text transform="matrix(1 0 0 1 253.1059 49.2568)" font-family="'Bahnschrift'" font-size="12">NEW</text>
<ellipse fill="#FFFFFF" stroke="#000000" stroke-miterlimit="10" cx="266" cy="117.9" rx="35.2" ry="10.1"/>
<ellipse fill="#FFFFFF" stroke="#000000" stroke-miterlimit="10" cx="266" cy="213.9" rx="35.2" ry="10.1"/>
<text transform="matrix(1 0 0 1 240.1715 121.4231)" font-family="'Bahnschrift'" font-size="12">RUNNING</text>
<ellipse fill="#FFFFFF" stroke="#000000" stroke-miterlimit="10" cx="446.9" cy="126.9" rx="55.4" ry="10.1"/>
<text transform="matrix(1 0 0 1 406.9768 130.4231)" font-family="'Bahnschrift'" font-size="12">TIMED_WAITING</text>
<ellipse fill="#FFFFFF" stroke="#000000" stroke-miterlimit="10" cx="462.8" cy="229.9" rx="35.2" ry="10.1"/>
<text transform="matrix(1 0 0 1 436.9768 233.4487)" font-family="'Bahnschrift'" font-size="12">BLOCKED</text>
<ellipse fill="#FFFFFF" stroke="#000000" stroke-miterlimit="10" cx="121.6" cy="136" rx="35.2" ry="10.1"/>
<text transform="matrix(1 0 0 1 98.7638 139.5068)" font-family="'Bahnschrift'" font-size="12">WAITING</text>
<ellipse fill="#FFFFFF" stroke="#000000" stroke-miterlimit="10" cx="268" cy="301.9" rx="46.5" ry="10.1"/>
<text transform="matrix(1 0 0 1 232.7614 305.3834)" font-family="'Bahnschrift'" font-size="12">TERMINATED</text>
<text transform="matrix(1 0 0 1 247.5483 218.4487)" font-family="'Bahnschrift'" font-size="12">READY</text>
<g>
	<g>
		<g>
			<polygon points="265.8,54.5 265.8,68.8 265.8,71.8 261.8,70.1 266.6,81.7 271.5,70.1 267.4,71.8 267.4,68.8 267.4,54.5 			"/>
		</g>
	</g>
</g>
<g>
	<g>
		<g>
			<polygon points="267.5,265.9 267.5,278.5 267.5,281.5 263.4,279.8 268.3,291.4 273.2,279.8 269.1,281.5 269.1,278.5 269.1,265.9 
							"/>
		</g>
	</g>
</g>
<g>
	<g>
		<g>
			<path d="M342.3,98.4c0,0,1.6-0.3,4.4-0.7c2.8-0.4,6.9-0.9,11.8-1.2c9.8-0.7,23-0.7,35.7,1.9c6.4,1.3,12.6,3.3,18.1,6
				c1.3,0.7,2.7,1.3,3.9,2.1c0.6,0.4,1.2,0.7,1.9,1.1c0.6,0.4,1.2,0.8,1.7,1.2c0.3,0.2,0.6,0.4,0.8,0.6c0.5,0.3,0.9,0.7,1.2,0.9
				c0.3,0.2,0.4,0.3,0.4,0.3s-1,0.5-1.9,1.1c-0.9,0.5-1.9,1.1-1.9,1.1c3.7,0.8,7.5,2.1,11.3,4c-1.2-4-3-8-5.5-11.9
				c0,0-0.2,1.1-0.5,2.2c-0.3,1.1-0.6,2.2-0.6,2.2s-0.2-0.1-0.4-0.4c-0.3-0.2-0.7-0.6-1.2-0.9c-0.3-0.2-0.6-0.4-0.9-0.6
				c-0.6-0.4-1.2-0.8-1.8-1.2c-0.6-0.4-1.3-0.8-1.9-1.1c-1.3-0.8-2.7-1.5-4-2.2c-5.6-2.8-12-4.7-18.5-6.1c-13-2.6-26.3-2.6-36.2-1.9
				c-4.9,0.3-9,0.8-11.9,1.3c-2.9,0.4-4.5,0.7-4.5,0.7L342.3,98.4z"/>
		</g>
	</g>
</g>
<g>
	<g>
		<g>
			<path d="M429.2,136.5c0,0-0.2,0.3-0.8,0.7c-0.6,0.5-1.4,1.2-2.5,2c-2.2,1.6-5.6,3.8-9.9,5.9c-8.6,4.3-20.9,8.2-33.6,10.3
				c-1.6,0.2-3.2,0.5-4.8,0.7c-1.6,0.2-3.2,0.5-4.7,0.6c-3.1,0.3-6.2,0.6-9.2,0.8c-3.5,0.1-6.9,0.3-9.7,0.4c-1.2,0-2,0-2,0l1.7-4.1
				c-3.8,1.6-7.6,3.2-11.5,4.8c3.8,1.7,7.7,3.3,11.6,5l-1.8-4.1c0,0,0.8,0,2,0c2.9-0.1,6.2-0.2,9.8-0.4c3-0.2,6.1-0.5,9.3-0.8
				c1.6-0.1,3.2-0.4,4.8-0.6c1.6-0.2,3.2-0.5,4.8-0.7c12.8-2,25.3-6,34-10.4c4.4-2.1,7.8-4.4,10.1-6.1c1.2-0.8,2-1.6,2.6-2.1
				c0.6-0.5,0.9-0.8,0.9-0.8L429.2,136.5z"/>
		</g>
	</g>
</g>
<g>
	<g>
		<g>
			<path d="M462.6,239.2c0,0-8.7,1.8-21.8,4c-6.6,1.1-14.2,2.3-22.4,3.6c-8.2,1.2-17,2.4-25.8,3.3c-4.4,0.5-8.8,0.9-13.2,1.3
				c-2.2,0.2-4.3,0.3-6.5,0.5c-2.1,0.2-4.2,0.3-6.3,0.4c-2.1,0.1-4.1,0.2-6.1,0.3c-2,0.1-3.9,0.1-5.8,0.1c-0.4,0-0.7,0-1,0
				c-1.2,0-2,0-2,0l1.7-4.1l-2.8,1.3l-2.9,1.1l-5.8,2.3l5.7,2.6l2.9,1.3l2.9,1.2l-1.8-4.1c0,0,0.8,0,2,0c0.3,0,0.7,0,1.1,0
				c1.9,0,3.9,0,5.9-0.1c2-0.1,4.1-0.2,6.1-0.3c2.1-0.1,4.2-0.2,6.3-0.4c2.1-0.2,4.3-0.3,6.5-0.5c4.4-0.4,8.8-0.8,13.2-1.3
				c35.4-3.8,70.2-10.9,70.2-10.9L462.6,239.2z"/>
		</g>
	</g>
</g>
<g>
	<g>
		<g>
			<path d="M342.2,205.1c0,0,2.2-0.2,6.1-0.4c3.9-0.2,9.5-0.5,16.3-0.7c13.4-0.3,31.4-0.2,49.3,1.9c8.9,1,17.7,2.5,25.8,4.7
				c2,0.6,4,1.1,5.9,1.8c1,0.3,1.9,0.6,2.8,1c0.9,0.4,1.8,0.7,2.7,1.1c0.3,0.1,0.7,0.3,1,0.4c1.1,0.5,1.8,0.8,1.8,0.8
				s-0.8,0.8-1.6,1.5c-0.8,0.8-1.6,1.5-1.6,1.5c3.9,0,7.9,0.2,12,1.2c-2.2-3.6-5-7-8.1-10.1c0,0,0,1.1,0,2.3c0,1.1,0,2.2,0,2.2
				s-0.7-0.3-1.9-0.9c-0.3-0.1-0.6-0.3-1-0.4c-0.9-0.4-1.8-0.7-2.8-1.1c-0.9-0.3-1.9-0.7-2.9-1c-1.9-0.7-4-1.2-6-1.8
				c-8.2-2.2-17.1-3.7-26.1-4.7c-17.9-2.1-36-2.2-49.5-1.9c-13.5,0.3-22.5,1.1-22.5,1.1L342.2,205.1z"/>
		</g>
	</g>
</g>
<g>
	<g>
		<g>
			<path d="M194.8,98.2c0,0-1.5,0-4,0.1c-2.5,0.1-6.1,0.2-10.4,0.6c-4.3,0.3-9.3,0.9-14.7,1.7c-5.3,0.8-11,2-16.6,3.6
				c-5.6,1.6-11,3.7-15.8,6.4c-0.6,0.3-1.2,0.7-1.7,1c-0.6,0.4-1.1,0.7-1.7,1.1c-0.5,0.4-1.1,0.8-1.6,1.2l-0.8,0.6l-0.7,0.6
				c-0.3,0.2-0.5,0.5-0.8,0.7c-0.5,0.4-0.9,0.8-1.1,1c-0.2,0.3-0.4,0.4-0.4,0.4s-0.4-1-0.8-2.1c-0.2-0.5-0.4-1.1-0.5-1.5
				c-0.1-0.4-0.2-0.7-0.2-0.7c-2.2,4.2-3.4,8.9-3,13.1c2.8-3.1,6.3-4.9,9.7-5.9c0,0-0.2-0.1-0.6-0.3c-0.4-0.2-0.9-0.4-1.4-0.6
				c-1-0.4-2-0.8-2-0.8s0.1-0.1,0.4-0.4c0.2-0.3,0.6-0.6,1-1c0.2-0.2,0.5-0.4,0.7-0.7l0.7-0.6l0.7-0.6c0.5-0.4,1-0.7,1.5-1.1
				c0.5-0.3,1.1-0.7,1.6-1c0.5-0.4,1.1-0.7,1.7-1c4.6-2.6,10-4.7,15.5-6.2c5.5-1.6,11.1-2.7,16.4-3.5c5.3-0.8,10.3-1.3,14.6-1.7
				c4.3-0.3,7.9-0.5,10.4-0.5c2.5-0.1,3.9-0.1,3.9-0.1L194.8,98.2z"/>
		</g>
	</g>
</g>
<g>
	<g>
		<g>
			<path d="M120.8,146.2c0,0,0,0.1,0.1,0.3c0.1,0.2,0.1,0.4,0.2,0.8c0.2,0.7,0.6,1.6,1.3,2.7c1.3,2.2,3.5,5.2,6.8,8
				c3.3,2.8,7.7,5.3,12.6,7.6c1.2,0.5,2.5,1,3.8,1.5c0.6,0.2,1.3,0.5,1.9,0.8c0.7,0.2,1.3,0.4,2,0.6c1.3,0.4,2.7,0.8,4.1,1.2
				c0.7,0.2,1.4,0.4,2.1,0.5l2.1,0.5c1.4,0.3,2.8,0.6,4.2,0.9c1.4,0.3,2.8,0.5,4.2,0.7c1.4,0.2,2.8,0.4,4.1,0.6
				c0.7,0.1,1.4,0.2,2,0.3c0.7,0.1,1.3,0.1,2,0.2c2.7,0.3,5.2,0.5,7.7,0.7c0.4,0,0.7,0.1,1,0.1c1.2,0,2,0.1,2,0.1l-2,4
				c4-1.5,8-2.9,11.9-4.4c-3.8-1.8-7.6-3.6-11.2-5.3l1.5,4.2c0,0-0.8,0-2-0.1c-0.3,0-0.6,0-1-0.1c-2.4-0.2-5-0.5-7.6-0.7
				c-0.7-0.1-1.3-0.1-2-0.2c-0.7-0.1-1.3-0.2-2-0.3c-1.3-0.2-2.7-0.4-4.1-0.6c-1.4-0.2-2.8-0.4-4.1-0.7c-1.4-0.3-2.7-0.6-4.1-0.9
				l-2.1-0.5c-0.7-0.2-1.4-0.3-2-0.5c-1.3-0.4-2.7-0.8-4-1.2c-0.7-0.2-1.3-0.4-2-0.6c-0.6-0.2-1.3-0.5-1.9-0.7
				c-1.3-0.5-2.5-1-3.7-1.5c-4.7-2.2-9-4.6-12.2-7.4c-3.2-2.7-5.3-5.5-6.5-7.5c-0.6-1-0.9-1.9-1.2-2.5c-0.1-0.3-0.2-0.5-0.2-0.7
				c0-0.1-0.1-0.2-0.1-0.2L120.8,146.2z"/>
		</g>
	</g>
</g>
<g>
	<path fill="#FFFFFF" d="M230.8,117.9c0,0-46.4,36.8,0,97"/>
	<g>
		<g>
			<path d="M230.3,117.3c0,0-0.4,0.3-1.1,0.9c-0.7,0.6-1.7,1.6-2.8,2.8c-1.2,1.3-2.6,2.8-4,4.7c-1.5,1.9-3,4.1-4.5,6.6
				c-1.5,2.5-2.9,5.4-4.2,8.5c-1.3,3.1-2.3,6.5-3.1,10.1c-0.8,3.6-1.1,7.4-1.2,11.2c0,1,0,1.9,0,2.9c0,1,0.1,1.9,0.2,2.9
				c0.1,2,0.5,3.9,0.7,5.8c1.3,7.7,4.1,15.1,7.3,21.7c1.6,3.3,3.4,6.3,5.1,9.2c0.2,0.3,0.4,0.6,0.6,0.9c0.7,1,1.1,1.7,1.1,1.7
				s-1.1,0.2-2.2,0.4c-1.1,0.2-2.2,0.4-2.2,0.4c1.8,1.2,3.5,2.5,5.3,3.6l5.4,3.3l-1.4-6.1c-0.5-2-0.7-4.1-1.1-6c0,0-0.6,0.9-1.3,1.8
				c-0.6,0.9-1.2,1.8-1.2,1.8s-0.4-0.7-1.1-1.7c-0.2-0.3-0.4-0.6-0.6-0.9c-1.7-2.8-3.5-5.8-5-9.1c-3.2-6.4-5.9-13.7-7.2-21.2
				c-0.3-1.9-0.6-3.8-0.7-5.7c-0.1-0.9-0.2-1.9-0.2-2.8c0-0.9,0-1.9,0-2.8c0.1-3.8,0.4-7.5,1.2-10.9c0.8-3.5,1.7-6.8,3-9.9
				c1.2-3,2.6-5.8,4.1-8.3c1.5-2.5,3-4.6,4.4-6.5c1.4-1.8,2.8-3.4,3.9-4.6c1.1-1.2,2.1-2.1,2.8-2.7c0.7-0.6,1-0.9,1-0.9L230.3,117.3
				z"/>
		</g>
	</g>
</g>
<g>
	<g>
		<g>
			<path d="M301.7,215.5c0,0,0.4-0.4,1.1-1c0.7-0.7,1.7-1.7,2.9-3c2.4-2.6,5.6-6.5,9-11.6c1.7-2.6,3.3-5.4,4.9-8.5
				c1.5-3.1,2.9-6.5,4.1-10.2c1.1-3.7,1.9-7.5,2.4-11.5c0.4-4,0.3-8.1-0.2-12.1c-1.2-8.1-4.2-15.8-8.3-22.2
				c-1.1-1.6-2.1-3.1-3.2-4.6c-1.1-1.4-2.3-2.8-3.4-4.2l-0.1-0.1l-0.1-0.1l-0.2-0.2c-0.1-0.1-0.2-0.2-0.3-0.4
				c-0.8-0.9-1.4-1.5-1.4-1.5s1.1-0.4,2.1-0.7c1.1-0.4,2.1-0.7,2.1-0.7c-2-0.9-3.9-1.9-5.9-2.7c-2-0.8-4-1.5-5.9-2.2
				c0.9,1.9,1.7,3.8,2.5,5.7c0.8,1.9,1.4,3.8,2.1,5.7c0,0,0.5-1,1-2c0.5-1,0.9-2,0.9-2s0.5,0.6,1.4,1.5c0.1,0.1,0.2,0.2,0.3,0.3
				l0.2,0.2c0.1,0.1,0.1,0.1,0.2,0.2c1.1,1.3,2.2,2.7,3.3,4.1c1,1.5,2.1,3,3.1,4.5c4,6.3,7,13.8,8.1,21.6c0.5,3.9,0.5,7.9,0.2,11.8
				c-0.4,3.9-1.2,7.6-2.3,11.2c-1.1,3.5-2.5,6.9-4,9.9c-1.5,3.1-3.2,5.8-4.8,8.4c-3.3,5-6.5,8.8-8.8,11.4c-1.2,1.3-2.1,2.3-2.8,2.9
				c-0.7,0.7-1,1-1,1L301.7,215.5z"/>
		</g>
	</g>
</g>
<rect x="273.7" y="60" fill="none" width="82.2" height="11.8"/>
<text transform="matrix(1 0 0 1 273.6664 67.6203)" font-family="'CascadiaCode-Regular'" font-size="9">thread.start();</text>
<rect x="355.8" y="210.6" fill="none" width="64" height="11.8"/>
<text transform="matrix(1 0 0 1 355.833 218.2357)" font-family="'CascadiaCode-Regular'" font-size="9">synchronized</text>
<rect x="399.4" y="254.2" fill="none" width="64" height="11.8"/>
<text transform="matrix(1 0 0 1 399.4048 262.1072)" font-family="'AdobeSongStd-Light-GBpc-EUC-H'" font-size="9">获取到锁</text>
<rect x="407" y="318.2" fill="none" width="125.9" height="11.8"/>
<text transform="matrix(1 0 0 1 406.977 328.4998)" font-family="'KaiTi'" font-size="12">线程的状态迁移过程图</text>
<rect x="378.6" y="51.3" fill="none" width="124.3" height="48.7"/>
<text transform="matrix(1 0 0 1 378.6243 58.8765)"><tspan x="0" y="0" font-family="'CascadiaCode-Regular'" font-size="9">Object.wait(long);</tspan><tspan x="0" y="10.8" font-family="'CascadiaCode-Regular'" font-size="9">Object.sleep(long);</tspan><tspan x="0" y="21.6" font-family="'CascadiaCode-Regular'" font-size="9">Thread.join(long);</tspan><tspan x="0" y="32.4" font-family="'CascadiaCode-Regular'" font-size="9">LockSupport.park(long);</tspan></text>
<rect x="221.5" y="139.5" fill="none" width="83" height="24.3"/>
<text transform="matrix(1 0 0 1 221.5461 147.127)"><tspan x="0" y="0" font-family="'CascadiaCode-Regular'" font-size="9">thread.yield();</tspan><tspan x="0" y="10.8" font-family="'AdobeSongStd-Light-GBpc-EUC-H'" font-size="9">系统调度</tspan></text>
<rect x="77.7" y="64.8" fill="none" width="124.3" height="32.7"/>
<text transform="matrix(1 0 0 1 77.6663 72.4536)"><tspan x="0" y="0" font-family="'CascadiaCode-Regular'" font-size="9">Object.wait();</tspan><tspan x="0" y="10.8" font-family="'CascadiaCode-Regular'" font-size="9">Thread.join();</tspan><tspan x="0" y="21.6" font-family="'CascadiaCode-Regular'" font-size="9">LockSupport.park();</tspan></text>
<rect x="41.3" y="160" fill="none" width="146.9" height="32.7"/>
<text transform="matrix(1 0 0 1 41.334 167.6619)"><tspan x="0" y="0" font-family="'CascadiaCode-Regular'" font-size="9">Object.notify();</tspan><tspan x="0" y="10.8" font-family="'CascadiaCode-Regular'" font-size="9">Object.notifyAll();</tspan><tspan x="0" y="21.6" font-family="'CascadiaCode-Regular'" font-size="9">Locksupport.unpark(thread);</tspan></text>
<rect x="377.1" y="159.7" fill="none" width="146.9" height="32.7"/>
<text transform="matrix(1 0 0 1 377.089 167.2869)"><tspan x="0" y="0" font-family="'CascadiaCode-Regular'" font-size="9">Object.notify();</tspan><tspan x="0" y="10.8" font-family="'CascadiaCode-Regular'" font-size="9">Object.notifyAll();</tspan><tspan x="0" y="21.6" font-family="'CascadiaCode-Regular'" font-size="9">Locksupport.unpark(thread);</tspan></text>
<text transform="matrix(1 0 0 1 274.9733 195.3333)" font-family="'AdobeSongStd-Light-GBpc-EUC-H'" font-size="9">系统调度</text>
</svg>
